<svg width="128" height="128" viewBox="0 0 128 128" fill="none" xmlns="http://www.w3.org/2000/svg">
<rect width="128" height="128" fill="#EEEEEE"/>
<path d="M46.7161 106.208C49.1161 106.208 50.1401 104.512 50.1401 102.4V94.208H48.2841V102.224C48.2841 103.952 47.6921 104.592 46.5081 104.592C45.7401 104.592 45.1001 104.224 44.6041 103.312L43.3081 104.256C44.0441 105.552 45.1321 106.208 46.7161 106.208ZM56.537 106.208C59.113 106.208 60.681 104.672 60.681 102.784C60.681 101.056 59.673 100.192 58.281 99.6L56.665 98.912C55.705 98.528 54.761 98.144 54.761 97.12C54.761 96.192 55.545 95.616 56.745 95.616C57.785 95.616 58.601 96.016 59.337 96.672L60.313 95.488C59.417 94.576 58.121 94 56.745 94C54.505 94 52.873 95.392 52.873 97.248C52.873 98.96 54.137 99.856 55.273 100.336L56.905 101.04C57.993 101.52 58.793 101.856 58.793 102.928C58.793 103.92 57.993 104.592 56.569 104.592C55.433 104.592 54.281 104.048 53.433 103.2L52.345 104.48C53.417 105.568 54.921 106.208 56.537 106.208ZM67.3914 106.208C70.4154 106.208 72.5274 103.856 72.5274 100.064C72.5274 96.272 70.4154 94 67.3914 94C64.3674 94 62.2714 96.272 62.2714 100.064C62.2714 103.856 64.3674 106.208 67.3914 106.208ZM67.3914 104.592C65.4394 104.592 64.1754 102.816 64.1754 100.064C64.1754 97.296 65.4394 95.616 67.3914 95.616C69.3434 95.616 70.6234 97.296 70.6234 100.064C70.6234 102.816 69.3434 104.592 67.3914 104.592ZM74.9739 106H76.7339V100.448C76.7339 99.168 76.5899 97.808 76.4939 96.592H76.5739L77.8059 99.056L81.7099 106H83.6139V94.208H81.8539V99.712C81.8539 100.992 81.9979 102.416 82.0939 103.632H82.0139L80.7819 101.136L76.8779 94.208H74.9739V106Z" fill="#7F7F7F"/>
</svg>
