<svg width="128" height="128" viewBox="0 0 128 128" fill="none" xmlns="http://www.w3.org/2000/svg">
<rect width="128" height="128" fill="#EEEEEE"/>
<path d="M49.2708 106H51.1268V101.536H52.9028C55.4628 101.536 57.3348 100.352 57.3348 97.776C57.3348 95.12 55.4628 94.208 52.8388 94.208H49.2708V106ZM51.1268 100.048V95.712H52.6628C54.5348 95.712 55.5108 96.224 55.5108 97.776C55.5108 99.328 54.6148 100.048 52.7268 100.048H51.1268ZM59.6301 106H61.4861V100.64H66.5261V106H68.3821V94.208H66.5261V99.024H61.4861V94.208H59.6301V106ZM71.4739 106H73.3299V101.536H75.1059C77.6659 101.536 79.5379 100.352 79.5379 97.776C79.5379 95.12 77.6659 94.208 75.0419 94.208H71.4739V106ZM73.3299 100.048V95.712H74.8659C76.7379 95.712 77.7139 96.224 77.7139 97.776C77.7139 99.328 76.8179 100.048 74.9299 100.048H73.3299Z" fill="#7F7F7F"/>
</svg>
