<svg width="128" height="128" viewBox="0 0 128 128" fill="none" xmlns="http://www.w3.org/2000/svg">
<g filter="url(#filter0_d)">
<path d="M12 100.725V27.0985C12 24.835 13.7909 23 16 23L41.3163 23C42.3639 23 43.3698 23.4212 44.1176 24.173L48.581 29.7821C49.3288 30.5339 50.3347 30.9551 51.3824 30.9551H112C114.209 30.9551 116 32.79 116 35.0536V100.725C116 102.989 114.209 104.824 112 104.824H16C13.7909 104.824 12 102.989 12 100.725Z" fill="white"/>
</g>
<g filter="url(#filter1_i)">
<path d="M12 100.725V27.0985C12 24.835 13.7909 23 16 23L41.3163 23C42.3639 23 43.3698 23.4212 44.1176 24.173L48.581 29.7821C49.3288 30.5339 50.3347 30.9551 51.3824 30.9551H112C114.209 30.9551 116 32.79 116 35.0536V100.725C116 102.989 114.209 104.824 112 104.824H16C13.7909 104.824 12 102.989 12 100.725Z" fill="#A7DCFC"/>
</g>
<path d="M12 100.261V40.5626C12 38.0428 13.7909 36 16 36H112C114.209 36 116 38.0428 116 40.5626V100.261C116 102.781 114.209 104.824 112 104.824H16C13.7909 104.824 12 102.781 12 100.261Z" fill="#9ED9FA"/>
<path d="M12 100.261V40.5626C12 38.0428 13.7909 36 16 36H112C114.209 36 116 38.0428 116 40.5626V100.261C116 102.781 114.209 104.824 112 104.824H16C13.7909 104.824 12 102.781 12 100.261Z" fill="url(#paint0_linear)"/>
<path d="M12 100.261V40.5626C12 38.0428 13.7909 36 16 36H112C114.209 36 116 38.0428 116 40.5626V100.261C116 102.781 114.209 104.824 112 104.824H16C13.7909 104.824 12 102.781 12 100.261Z" fill="url(#paint1_radial)"/>
<mask id="mask0" mask-type="alpha" maskUnits="userSpaceOnUse" x="12" y="36" width="104" height="69">
<path d="M12 100.261V40.5626C12 38.0428 13.7909 36 16 36H112C114.209 36 116 38.0428 116 40.5626V100.261C116 102.781 114.209 104.824 112 104.824H16C13.7909 104.824 12 102.781 12 100.261Z" fill="white"/>
</mask>
<g mask="url(#mask0)">
<rect x="12" y="101.765" width="104" height="3.05881" fill="url(#paint2_linear)" fill-opacity="0.9"/>
<rect x="12" y="98.7059" width="104" height="3.05883" fill="url(#paint3_linear)" fill-opacity="0.9"/>
<rect x="12" y="95.6471" width="104" height="3.05882" fill="url(#paint4_linear)" fill-opacity="0.9"/>
</g>
<defs>
<filter id="filter0_d" x="9" y="20.75" width="110" height="87.8235" filterUnits="userSpaceOnUse" color-interpolation-filters="sRGB">
<feFlood flood-opacity="0" result="BackgroundImageFix"/>
<feColorMatrix in="SourceAlpha" type="matrix" values="0 0 0 0 0 0 0 0 0 0 0 0 0 0 0 0 0 0 127 0"/>
<feOffset dy="0.75"/>
<feGaussianBlur stdDeviation="1.5"/>
<feColorMatrix type="matrix" values="0 0 0 0 0 0 0 0 0 0 0 0 0 0 0 0 0 0 0.3 0"/>
<feBlend mode="normal" in2="BackgroundImageFix" result="effect1_dropShadow"/>
<feBlend mode="normal" in="SourceGraphic" in2="effect1_dropShadow" result="shape"/>
</filter>
<filter id="filter1_i" x="12" y="23" width="104" height="85.8235" filterUnits="userSpaceOnUse" color-interpolation-filters="sRGB">
<feFlood flood-opacity="0" result="BackgroundImageFix"/>
<feBlend mode="normal" in="SourceGraphic" in2="BackgroundImageFix" result="shape"/>
<feColorMatrix in="SourceAlpha" type="matrix" values="0 0 0 0 0 0 0 0 0 0 0 0 0 0 0 0 0 0 127 0" result="hardAlpha"/>
<feOffset dy="4"/>
<feGaussianBlur stdDeviation="2"/>
<feComposite in2="hardAlpha" operator="arithmetic" k2="-1" k3="1"/>
<feColorMatrix type="matrix" values="0 0 0 0 0.541176 0 0 0 0 0.796078 0 0 0 0 0.937255 0 0 0 0.2 0"/>
<feBlend mode="normal" in2="shape" result="effect1_innerShadow"/>
</filter>
<linearGradient id="paint0_linear" x1="64" y1="36" x2="64" y2="104.824" gradientUnits="userSpaceOnUse">
<stop stop-color="#81CDF8"/>
<stop offset="0.39898" stop-color="#90D3F9"/>
<stop offset="1" stop-color="#84CEF8"/>
</linearGradient>
<radialGradient id="paint1_radial" cx="0" cy="0" r="1" gradientUnits="userSpaceOnUse" gradientTransform="translate(64 70.4118) rotate(90) scale(24.0882 52)">
<stop stop-color="white" stop-opacity="0"/>
<stop offset="1" stop-color="#61B9EA" stop-opacity="0.1"/>
</radialGradient>
<linearGradient id="paint2_linear" x1="64" y1="101.765" x2="64" y2="104.824" gradientUnits="userSpaceOnUse">
<stop stop-color="#9CD3F2"/>
<stop offset="0.0833333" stop-color="#8FCDF0"/>
<stop offset="1" stop-color="#6BBDEB"/>
</linearGradient>
<linearGradient id="paint3_linear" x1="64" y1="98.7059" x2="64" y2="101.765" gradientUnits="userSpaceOnUse">
<stop stop-color="#9CD3F2"/>
<stop offset="0.0833333" stop-color="#8FCDF0"/>
<stop offset="1" stop-color="#6BBDEB"/>
</linearGradient>
<linearGradient id="paint4_linear" x1="64" y1="95.6471" x2="64" y2="98.7059" gradientUnits="userSpaceOnUse">
<stop stop-color="#9CD3F2"/>
<stop offset="0.0833333" stop-color="#8FCDF0"/>
<stop offset="1" stop-color="#6BBDEB"/>
</linearGradient>
</defs>
</svg>
