<svg width="128" height="128" viewBox="0 0 128 128" fill="none" xmlns="http://www.w3.org/2000/svg">
<rect width="128" height="128" fill="#EEEEEE"/>
<path d="M49.0521 106.208C51.4521 106.208 52.4761 104.512 52.4761 102.4V94.208H50.6201V102.224C50.6201 103.952 50.0281 104.592 48.8441 104.592C48.0761 104.592 47.4361 104.224 46.9401 103.312L45.6441 104.256C46.3801 105.552 47.4681 106.208 49.0521 106.208ZM57.7689 99.6C58.1529 98.32 58.5209 97.024 58.8569 95.68H58.9369C59.2889 97.008 59.6409 98.32 60.0409 99.6L60.5049 101.184H57.2889L57.7689 99.6ZM53.9609 106H55.8489L56.8569 102.64H60.9529L61.9449 106H63.9129L60.0089 94.208H57.8649L53.9609 106ZM67.3124 106H69.5044L73.1844 94.208H71.2964L69.5524 100.32C69.1684 101.664 68.8964 102.816 68.4804 104.176H68.4004C68.0004 102.816 67.7284 101.664 67.3284 100.32L65.5844 94.208H63.6164L67.3124 106ZM76.6908 99.6C77.0748 98.32 77.4428 97.024 77.7788 95.68H77.8588C78.2108 97.008 78.5628 98.32 78.9628 99.6L79.4268 101.184H76.2108L76.6908 99.6ZM72.8828 106H74.7708L75.7788 102.64H79.8748L80.8668 106H82.8348L78.9308 94.208H76.7868L72.8828 106Z" fill="#7F7F7F"/>
</svg>
