<svg width="128" height="128" viewBox="0 0 128 128" fill="none" xmlns="http://www.w3.org/2000/svg">
<rect width="128" height="128" fill="#EEEEEE"/>
<path d="M37.9739 106H39.8299V101.536H41.6059C44.1659 101.536 46.0379 100.352 46.0379 97.776C46.0379 95.12 44.1659 94.208 41.5419 94.208H37.9739V106ZM39.8299 100.048V95.712H41.3659C43.2379 95.712 44.2139 96.224 44.2139 97.776C44.2139 99.328 43.3179 100.048 41.4299 100.048H39.8299ZM48.5733 109.68C50.4293 109.68 51.3573 108.416 52.0453 106.528L55.2773 97.2H53.4853L52.0773 101.728C51.8533 102.528 51.6133 103.408 51.3893 104.208H51.3093C51.0373 103.392 50.7653 102.512 50.5093 101.728L48.8773 97.2H46.9893L50.4773 105.936L50.3013 106.544C49.9813 107.488 49.4213 108.192 48.4613 108.192C48.2373 108.192 47.9813 108.112 47.8213 108.064L47.4693 109.504C47.7733 109.616 48.1253 109.68 48.5733 109.68ZM59.8364 106.208C60.4764 106.208 61.0684 106.048 61.5644 105.888L61.2284 104.528C60.9724 104.64 60.5884 104.736 60.2844 104.736C59.3724 104.736 59.0044 104.192 59.0044 103.136V98.672H61.2924V97.2H59.0044V94.768H57.4684L57.2604 97.2L55.8844 97.296V98.672H57.1644V103.12C57.1644 104.976 57.8524 106.208 59.8364 106.208ZM63.2201 106H65.0601V99.76C65.8281 98.976 66.3881 98.56 67.2041 98.56C68.2441 98.56 68.6921 99.168 68.6921 100.688V106H70.5321V100.464C70.5321 98.224 69.7001 96.976 67.8281 96.976C66.6281 96.976 65.7481 97.632 64.9801 98.368L65.0601 96.624V93.248H63.2201V106ZM76.6776 106.208C78.8536 106.208 80.8216 104.528 80.8216 101.6C80.8216 98.672 78.8536 96.976 76.6776 96.976C74.5016 96.976 72.5336 98.672 72.5336 101.6C72.5336 104.528 74.5016 106.208 76.6776 106.208ZM76.6776 104.704C75.3016 104.704 74.4376 103.472 74.4376 101.6C74.4376 99.744 75.3016 98.496 76.6776 98.496C78.0696 98.496 78.9336 99.744 78.9336 101.6C78.9336 103.472 78.0696 104.704 76.6776 104.704ZM82.9858 106H84.8258V99.76C85.5938 98.976 86.1538 98.56 86.9698 98.56C88.0098 98.56 88.4578 99.168 88.4578 100.688V106H90.2978V100.464C90.2978 98.224 89.4658 96.976 87.5938 96.976C86.3938 96.976 85.4978 97.632 84.6818 98.416H84.6338L84.4898 97.2H82.9858V106Z" fill="#7F7F7F"/>
</svg>
