<svg width="128" height="128" viewBox="0 0 128 128" fill="none" xmlns="http://www.w3.org/2000/svg">
<rect width="128" height="128" fill="#EEEEEE"/>
<path d="M49.9074 106.208C50.5954 106.208 51.1394 105.68 51.1394 104.928C51.1394 104.16 50.5954 103.616 49.9074 103.616C49.2194 103.616 48.6754 104.16 48.6754 104.928C48.6754 105.68 49.2194 106.208 49.9074 106.208ZM53.6811 106H55.5211V99.76C56.2891 98.976 56.8491 98.56 57.6651 98.56C58.7051 98.56 59.1531 99.168 59.1531 100.688V106H60.9931V100.464C60.9931 98.224 60.1611 96.976 58.2891 96.976C57.0891 96.976 56.2091 97.632 55.4411 98.368L55.5211 96.624V93.248H53.6811V106ZM66.0826 104.176H67.4906V100.72H70.7386V99.392H67.4906V95.936H66.0826V99.392H62.8346V100.72H66.0826V104.176ZM75.2076 104.176H76.6156V100.72H79.8636V99.392H76.6156V95.936H75.2076V99.392H71.9596V100.72H75.2076V104.176Z" fill="#7F7F7F"/>
</svg>
