<svg width="128" height="128" viewBox="0 0 128 128" fill="none" xmlns="http://www.w3.org/2000/svg">
<path d="M58.772 89.09C58.4141 86.5048 56.4254 85.0048 53.8459 85.0048C50.8061 85.0048 48.5163 87.2207 48.5163 90.982C48.5163 94.7377 50.7777 96.9593 53.8459 96.9593C56.6129 96.9593 58.4482 95.1696 58.772 92.948L56.647 92.9366C56.38 94.3002 55.2663 95.0673 53.8743 95.0673C51.9879 95.0673 50.6357 93.6525 50.6357 90.982C50.6357 88.357 51.9766 86.8968 53.88 86.8968C55.2947 86.8968 56.4027 87.698 56.647 89.09H58.772ZM67.0263 88.3627H69.0547C69.0149 86.3968 67.3388 85.0048 64.8615 85.0048C62.4183 85.0048 60.5831 86.3798 60.5888 88.4366C60.5888 90.107 61.7763 91.0673 63.6911 91.5616L65.0149 91.9025C66.2706 92.2207 67.1001 92.6127 67.1058 93.5161C67.1001 94.5105 66.157 95.1752 64.782 95.1752C63.4638 95.1752 62.4411 94.5843 62.3558 93.3627H60.282C60.3672 95.6752 62.0888 96.9764 64.799 96.9764C67.5888 96.9764 69.2081 95.5843 69.2138 93.5332C69.2081 91.5161 67.5433 90.5957 65.7933 90.1809L64.7024 89.9082C63.7479 89.6809 62.7138 89.2775 62.7251 88.3059C62.7308 87.4309 63.5149 86.7889 64.8331 86.7889C66.0888 86.7889 66.9183 87.3741 67.0263 88.3627ZM77.4169 88.3627H79.4453C79.4055 86.3968 77.7294 85.0048 75.2521 85.0048C72.8089 85.0048 70.9737 86.3798 70.9794 88.4366C70.9794 90.107 72.1669 91.0673 74.0817 91.5616L75.4055 91.9025C76.6612 92.2207 77.4908 92.6127 77.4964 93.5161C77.4908 94.5105 76.5476 95.1752 75.1726 95.1752C73.8544 95.1752 72.8317 94.5843 72.7464 93.3627H70.6726C70.7578 95.6752 72.4794 96.9764 75.1896 96.9764C77.9794 96.9764 79.5987 95.5843 79.6044 93.5332C79.5987 91.5161 77.9339 90.5957 76.1839 90.1809L75.093 89.9082C74.1385 89.6809 73.1044 89.2775 73.1158 88.3059C73.1214 87.4309 73.9055 86.7889 75.2237 86.7889C76.4794 86.7889 77.3089 87.3741 77.4169 88.3627Z" fill="#808080"/>
</svg>
