<svg width="128" height="128" viewBox="0 0 128 128" fill="none" xmlns="http://www.w3.org/2000/svg">
<path d="M58.772 97.2898C58.4141 94.7045 56.4254 93.2045 53.8459 93.2045C50.8061 93.2045 48.5163 95.4205 48.5163 99.1818C48.5163 102.938 50.7777 105.159 53.8459 105.159C56.6129 105.159 58.4482 103.369 58.772 101.148L56.647 101.136C56.38 102.5 55.2663 103.267 53.8743 103.267C51.9879 103.267 50.6357 101.852 50.6357 99.1818C50.6357 96.5568 51.9766 95.0966 53.88 95.0966C55.2947 95.0966 56.4027 95.8977 56.647 97.2898H58.772ZM67.0263 96.5625H69.0547C69.0149 94.5966 67.3388 93.2045 64.8615 93.2045C62.4183 93.2045 60.5831 94.5795 60.5888 96.6364C60.5888 98.3068 61.7763 99.267 63.6911 99.7614L65.0149 100.102C66.2706 100.42 67.1001 100.812 67.1058 101.716C67.1001 102.71 66.157 103.375 64.782 103.375C63.4638 103.375 62.4411 102.784 62.3558 101.562H60.282C60.3672 103.875 62.0888 105.176 64.799 105.176C67.5888 105.176 69.2081 103.784 69.2138 101.733C69.2081 99.7159 67.5433 98.7955 65.7933 98.3807L64.7024 98.108C63.7479 97.8807 62.7138 97.4773 62.7251 96.5057C62.7308 95.6307 63.5149 94.9886 64.8331 94.9886C66.0888 94.9886 66.9183 95.5739 67.0263 96.5625ZM77.4169 96.5625H79.4453C79.4055 94.5966 77.7294 93.2045 75.2521 93.2045C72.8089 93.2045 70.9737 94.5795 70.9794 96.6364C70.9794 98.3068 72.1669 99.267 74.0817 99.7614L75.4055 100.102C76.6612 100.42 77.4908 100.812 77.4964 101.716C77.4908 102.71 76.5476 103.375 75.1726 103.375C73.8544 103.375 72.8317 102.784 72.7464 101.562H70.6726C70.7578 103.875 72.4794 105.176 75.1896 105.176C77.9794 105.176 79.5987 103.784 79.6044 101.733C79.5987 99.7159 77.9339 98.7955 76.1839 98.3807L75.093 98.108C74.1385 97.8807 73.1044 97.4773 73.1158 96.5057C73.1214 95.6307 73.9055 94.9886 75.2237 94.9886C76.4794 94.9886 77.3089 95.5739 77.4169 96.5625Z" fill="#808080"/>
</svg>
