<svg width="128" height="128" viewBox="0 0 128 128" fill="none" xmlns="http://www.w3.org/2000/svg">
<path d="M63.9673 89.09C63.6094 86.5048 61.6207 85.0048 59.0412 85.0048C56.0014 85.0048 53.7116 87.2207 53.7116 90.982C53.7116 94.7377 55.973 96.9593 59.0412 96.9593C61.8082 96.9593 63.6435 95.1696 63.9673 92.948L61.8423 92.9366C61.5753 94.3002 60.4616 95.0673 59.0696 95.0673C57.1832 95.0673 55.831 93.6525 55.831 90.982C55.831 88.357 57.1719 86.8968 59.0753 86.8968C60.4901 86.8968 61.598 87.698 61.8423 89.09H63.9673ZM72.2216 88.3627H74.25C74.2102 86.3968 72.5341 85.0048 70.0568 85.0048C67.6136 85.0048 65.7784 86.3798 65.7841 88.4366C65.7841 90.107 66.9716 91.0673 68.8864 91.5616L70.2102 91.9025C71.4659 92.2207 72.2955 92.6127 72.3011 93.5161C72.2955 94.5105 71.3523 95.1752 69.9773 95.1752C68.6591 95.1752 67.6364 94.5843 67.5511 93.3627H65.4773C65.5625 95.6752 67.2841 96.9764 69.9943 96.9764C72.7841 96.9764 74.4034 95.5843 74.4091 93.5332C74.4034 91.5161 72.7386 90.5957 70.9886 90.1809L69.8977 89.9082C68.9432 89.6809 67.9091 89.2775 67.9205 88.3059C67.9261 87.4309 68.7102 86.7889 70.0284 86.7889C71.2841 86.7889 72.1136 87.3741 72.2216 88.3627Z" fill="#808080"/>
</svg>
