<svg width="128" height="128" viewBox="0 0 128 128" fill="none" xmlns="http://www.w3.org/2000/svg">
<path d="M63.9673 97.2898C63.6094 94.7045 61.6207 93.2045 59.0412 93.2045C56.0014 93.2045 53.7116 95.4205 53.7116 99.1818C53.7116 102.938 55.973 105.159 59.0412 105.159C61.8082 105.159 63.6435 103.369 63.9673 101.148L61.8423 101.136C61.5753 102.5 60.4616 103.267 59.0696 103.267C57.1832 103.267 55.831 101.852 55.831 99.1818C55.831 96.5568 57.1719 95.0966 59.0753 95.0966C60.4901 95.0966 61.598 95.8977 61.8423 97.2898H63.9673ZM72.2216 96.5625H74.25C74.2102 94.5966 72.5341 93.2045 70.0568 93.2045C67.6136 93.2045 65.7784 94.5795 65.7841 96.6364C65.7841 98.3068 66.9716 99.267 68.8864 99.7614L70.2102 100.102C71.4659 100.42 72.2955 100.812 72.3011 101.716C72.2955 102.71 71.3523 103.375 69.9773 103.375C68.6591 103.375 67.6364 102.784 67.5511 101.562H65.4773C65.5625 103.875 67.2841 105.176 69.9943 105.176C72.7841 105.176 74.4034 103.784 74.4091 101.733C74.4034 99.7159 72.7386 98.7955 70.9886 98.3807L69.8977 98.108C68.9432 97.8807 67.9091 97.4773 67.9205 96.5057C67.9261 95.6307 68.7102 94.9886 70.0284 94.9886C71.2841 94.9886 72.1136 95.5739 72.2216 96.5625Z" fill="#808080"/>
</svg>
