<svg width="128" height="128" viewBox="0 0 128 128" fill="none" xmlns="http://www.w3.org/2000/svg">
<path d="M60.7088 88.8798H62.8565C62.4986 86.5957 60.5213 85.0048 57.9474 85.0048C54.902 85.0048 52.6179 87.2434 52.6179 90.9934C52.6179 94.6752 54.7997 96.9593 58.0099 96.9593C60.8906 96.9593 62.9531 95.1071 62.9531 92.107V90.7093H58.2315V92.357H60.9134C60.8793 94.0161 59.7713 95.0673 58.0213 95.0673C56.0724 95.0673 54.7372 93.607 54.7372 90.9707C54.7372 88.3514 56.0952 86.8968 57.9759 86.8968C59.3793 86.8968 60.3338 87.6468 60.7088 88.8798ZM75.3892 90.982C75.3892 87.2207 73.0938 85.0048 70.0426 85.0048C66.9858 85.0048 64.696 87.2207 64.696 90.982C64.696 94.7377 66.9858 96.9593 70.0426 96.9593C73.0938 96.9593 75.3892 94.7434 75.3892 90.982ZM73.2699 90.982C73.2699 93.6298 71.9403 95.0673 70.0426 95.0673C68.1506 95.0673 66.8153 93.6298 66.8153 90.982C66.8153 88.3343 68.1506 86.8968 70.0426 86.8968C71.9403 86.8968 73.2699 88.3343 73.2699 90.982Z" fill="#808080"/>
</svg>
