<svg width="128" height="128" viewBox="0 0 128 128" fill="none" xmlns="http://www.w3.org/2000/svg">
<path d="M60.7088 97.0795H62.8565C62.4986 94.7955 60.5213 93.2045 57.9474 93.2045C54.902 93.2045 52.6179 95.4432 52.6179 99.1932C52.6179 102.875 54.7997 105.159 58.0099 105.159C60.8906 105.159 62.9531 103.307 62.9531 100.307V98.9091H58.2315V100.557H60.9134C60.8793 102.216 59.7713 103.267 58.0213 103.267C56.0724 103.267 54.7372 101.807 54.7372 99.1705C54.7372 96.5511 56.0952 95.0966 57.9759 95.0966C59.3793 95.0966 60.3338 95.8466 60.7088 97.0795ZM75.3892 99.1818C75.3892 95.4205 73.0938 93.2045 70.0426 93.2045C66.9858 93.2045 64.696 95.4205 64.696 99.1818C64.696 102.938 66.9858 105.159 70.0426 105.159C73.0938 105.159 75.3892 102.943 75.3892 99.1818ZM73.2699 99.1818C73.2699 101.83 71.9403 103.267 70.0426 103.267C68.1506 103.267 66.8153 101.83 66.8153 99.1818C66.8153 96.5341 68.1506 95.0966 70.0426 95.0966C71.9403 95.0966 73.2699 96.5341 73.2699 99.1818Z" fill="#808080"/>
</svg>
