<svg width="128" height="128" viewBox="0 0 128 128" fill="none" xmlns="http://www.w3.org/2000/svg">
<path d="M49.2308 93.3636V101.545C49.2251 102.773 48.657 103.426 47.6456 103.426C46.7024 103.426 46.0717 102.852 46.0547 101.909H43.9581C43.9581 104.057 45.5263 105.159 47.5661 105.159C49.8104 105.159 51.3161 103.795 51.3217 101.545V93.3636H49.2308ZM55.103 105L56.0632 102.131H60.4382L61.4041 105H63.6541L59.5518 93.3636H56.9496L52.853 105H55.103ZM56.6314 100.438L58.2053 95.75H58.2962L59.87 100.438H56.6314ZM65.4155 93.3636H63.103L67.1996 105H69.8018L73.9041 93.3636H71.5859L68.5632 102.523H68.4439L65.4155 93.3636ZM75.5717 105L76.532 102.131H80.907L81.8729 105H84.1229L80.0206 93.3636H77.4183L73.3217 105H75.5717ZM77.1001 100.438L78.674 95.75H78.7649L80.3388 100.438H77.1001Z" fill="#808080"/>
</svg>
