<svg width="128" height="128" viewBox="0 0 128 128" fill="none" xmlns="http://www.w3.org/2000/svg">
<path d="M49.2308 85.1639V93.3457C49.2251 94.573 48.657 95.2264 47.6456 95.2264C46.7024 95.2264 46.0717 94.6525 46.0547 93.7093H43.9581C43.9581 95.8571 45.5263 96.9593 47.5661 96.9593C49.8104 96.9593 51.3161 95.5957 51.3217 93.3457V85.1639H49.2308ZM55.103 96.8002L56.0632 93.9309H60.4382L61.4041 96.8002H63.6541L59.5518 85.1639H56.9496L52.853 96.8002H55.103ZM56.6314 92.2377L58.2053 87.5502H58.2962L59.87 92.2377H56.6314ZM65.4155 85.1639H63.103L67.1996 96.8002H69.8018L73.9041 85.1639H71.5859L68.5632 94.323H68.4439L65.4155 85.1639ZM75.5717 96.8002L76.532 93.9309H80.907L81.8729 96.8002H84.1229L80.0206 85.1639H77.4183L73.3217 96.8002H75.5717ZM77.1001 92.2377L78.674 87.5502H78.7649L80.3388 92.2377H77.1001Z" fill="#808080"/>
</svg>
