<svg width="128" height="128" viewBox="0 0 128 128" fill="none" xmlns="http://www.w3.org/2000/svg">
<path d="M39.7962 96.8002H41.9041V92.8684H44.1314C46.8189 92.8684 48.2621 91.2548 48.2621 89.0161C48.2621 86.7945 46.8359 85.1639 44.1598 85.1639H39.7962V96.8002ZM41.9041 91.1355V86.9252H43.8359C45.4155 86.9252 46.1143 87.7775 46.1143 89.0161C46.1143 90.2548 45.4155 91.1355 43.8473 91.1355H41.9041ZM52.3572 96.9764C53.7266 96.9764 54.5447 96.3343 54.9197 95.6014H54.9879V96.8002H56.9652V90.9593C56.9652 88.6525 55.0845 87.9593 53.4197 87.9593C51.5845 87.9593 50.1754 88.7775 49.7209 90.3684L51.6413 90.6411C51.8459 90.0445 52.4254 89.5332 53.4311 89.5332C54.3857 89.5332 54.9084 90.0218 54.9084 90.8798V90.9139C54.9084 91.5048 54.2891 91.5332 52.7493 91.698C51.0561 91.8798 49.4368 92.3855 49.4368 94.3514C49.4368 96.0673 50.6925 96.9764 52.3572 96.9764ZM52.8913 95.465C52.0334 95.465 51.4197 95.073 51.4197 94.3173C51.4197 93.5275 52.1072 93.198 53.0277 93.0673C53.5675 92.9934 54.647 92.857 54.9141 92.6411V93.6695C54.9141 94.6411 54.13 95.465 52.8913 95.465ZM65.9311 90.3798C65.647 88.9025 64.4652 87.9593 62.4197 87.9593C60.3175 87.9593 58.8857 88.9934 58.8913 90.607C58.8857 91.8798 59.6697 92.7207 61.3459 93.0673L62.8345 93.3798C63.6357 93.5559 64.0107 93.8798 64.0107 94.3741C64.0107 94.9707 63.3629 95.4196 62.3857 95.4196C61.4425 95.4196 60.8288 95.0105 60.6527 94.2264L58.647 94.4195C58.9027 96.0218 60.2493 96.9707 62.3913 96.9707C64.5732 96.9707 66.1129 95.84 66.1186 94.1866C66.1129 92.9423 65.3118 92.1809 63.6641 91.823L62.1754 91.5048C61.2891 91.3059 60.9368 90.9991 60.9425 90.4934C60.9368 89.9025 61.5902 89.4934 62.4482 89.4934C63.397 89.4934 63.897 90.0105 64.0561 90.5843L65.9311 90.3798ZM71.6214 96.9707C73.8146 96.9707 75.2124 95.6696 75.3601 93.8173H73.3942C73.218 94.7548 72.5419 95.2946 71.6385 95.2946C70.3544 95.2946 69.5249 94.2207 69.5249 92.4366C69.5249 90.6752 70.3714 89.6184 71.6385 89.6184C72.6271 89.6184 73.2351 90.2548 73.3942 91.0957H75.3601C75.218 89.2036 73.7408 87.9593 71.6101 87.9593C69.0533 87.9593 67.4396 89.8059 67.4396 92.4707C67.4396 95.1127 69.0135 96.9707 71.6214 96.9707ZM79.5604 96.9764C80.9297 96.9764 81.7479 96.3343 82.1229 95.6014H82.1911V96.8002H84.1683V90.9593C84.1683 88.6525 82.2876 87.9593 80.6229 87.9593C78.7876 87.9593 77.3786 88.7775 76.924 90.3684L78.8445 90.6411C79.049 90.0445 79.6286 89.5332 80.6342 89.5332C81.5888 89.5332 82.1115 90.0218 82.1115 90.8798V90.9139C82.1115 91.5048 81.4922 91.5332 79.9524 91.698C78.2592 91.8798 76.6399 92.3855 76.6399 94.3514C76.6399 96.0673 77.8956 96.9764 79.5604 96.9764ZM80.0945 95.465C79.2365 95.465 78.6229 95.073 78.6229 94.3173C78.6229 93.5275 79.3104 93.198 80.2308 93.0673C80.7706 92.9934 81.8501 92.857 82.1172 92.6411V93.6695C82.1172 94.6411 81.3331 95.465 80.0945 95.465ZM88.2933 85.1639H86.2365V96.8002H88.2933V85.1639Z" fill="#808080"/>
</svg>
