<svg width="128" height="128" viewBox="0 0 128 128" fill="none" xmlns="http://www.w3.org/2000/svg">
<path d="M39.7962 105H41.9041V101.068H44.1314C46.8189 101.068 48.2621 99.4545 48.2621 97.2159C48.2621 94.9943 46.8359 93.3636 44.1598 93.3636H39.7962V105ZM41.9041 99.3352V95.125H43.8359C45.4155 95.125 46.1143 95.9773 46.1143 97.2159C46.1143 98.4545 45.4155 99.3352 43.8473 99.3352H41.9041ZM52.3572 105.176C53.7266 105.176 54.5447 104.534 54.9197 103.801H54.9879V105H56.9652V99.1591C56.9652 96.8523 55.0845 96.1591 53.4197 96.1591C51.5845 96.1591 50.1754 96.9773 49.7209 98.5682L51.6413 98.8409C51.8459 98.2443 52.4254 97.733 53.4311 97.733C54.3857 97.733 54.9084 98.2216 54.9084 99.0795V99.1136C54.9084 99.7045 54.2891 99.733 52.7493 99.8977C51.0561 100.08 49.4368 100.585 49.4368 102.551C49.4368 104.267 50.6925 105.176 52.3572 105.176ZM52.8913 103.665C52.0334 103.665 51.4197 103.273 51.4197 102.517C51.4197 101.727 52.1072 101.398 53.0277 101.267C53.5675 101.193 54.647 101.057 54.9141 100.841V101.869C54.9141 102.841 54.13 103.665 52.8913 103.665ZM65.9311 98.5795C65.647 97.1023 64.4652 96.1591 62.4197 96.1591C60.3175 96.1591 58.8857 97.1932 58.8913 98.8068C58.8857 100.08 59.6697 100.92 61.3459 101.267L62.8345 101.58C63.6357 101.756 64.0107 102.08 64.0107 102.574C64.0107 103.17 63.3629 103.619 62.3857 103.619C61.4425 103.619 60.8288 103.21 60.6527 102.426L58.647 102.619C58.9027 104.222 60.2493 105.17 62.3913 105.17C64.5732 105.17 66.1129 104.04 66.1186 102.386C66.1129 101.142 65.3118 100.381 63.6641 100.023L62.1754 99.7045C61.2891 99.5057 60.9368 99.1989 60.9425 98.6932C60.9368 98.1023 61.5902 97.6932 62.4482 97.6932C63.397 97.6932 63.897 98.2102 64.0561 98.7841L65.9311 98.5795ZM71.6214 105.17C73.8146 105.17 75.2124 103.869 75.3601 102.017H73.3942C73.218 102.955 72.5419 103.494 71.6385 103.494C70.3544 103.494 69.5249 102.42 69.5249 100.636C69.5249 98.875 70.3714 97.8182 71.6385 97.8182C72.6271 97.8182 73.2351 98.4545 73.3942 99.2955H75.3601C75.218 97.4034 73.7408 96.1591 71.6101 96.1591C69.0533 96.1591 67.4396 98.0057 67.4396 100.67C67.4396 103.312 69.0135 105.17 71.6214 105.17ZM79.5604 105.176C80.9297 105.176 81.7479 104.534 82.1229 103.801H82.1911V105H84.1683V99.1591C84.1683 96.8523 82.2876 96.1591 80.6229 96.1591C78.7876 96.1591 77.3786 96.9773 76.924 98.5682L78.8445 98.8409C79.049 98.2443 79.6286 97.733 80.6342 97.733C81.5888 97.733 82.1115 98.2216 82.1115 99.0795V99.1136C82.1115 99.7045 81.4922 99.733 79.9524 99.8977C78.2592 100.08 76.6399 100.585 76.6399 102.551C76.6399 104.267 77.8956 105.176 79.5604 105.176ZM80.0945 103.665C79.2365 103.665 78.6229 103.273 78.6229 102.517C78.6229 101.727 79.3104 101.398 80.2308 101.267C80.7706 101.193 81.8501 101.057 82.1172 100.841V101.869C82.1172 102.841 81.3331 103.665 80.0945 103.665ZM88.2933 93.3636H86.2365V105H88.2933V93.3636Z" fill="#808080"/>
</svg>
