<svg width="128" height="128" viewBox="0 0 128 128" fill="none" xmlns="http://www.w3.org/2000/svg">
<path d="M37.6009 105H39.7088V101.068H41.9361C44.6236 101.068 46.0668 99.4545 46.0668 97.2159C46.0668 94.9943 44.6406 93.3636 41.9645 93.3636H37.6009V105ZM39.7088 99.3352V95.125H41.6406C43.2202 95.125 43.919 95.9773 43.919 97.2159C43.919 98.4545 43.2202 99.3352 41.652 99.3352H39.7088ZM49.0852 108.273C50.6875 108.273 51.6136 107.449 52.108 106.057L55.6136 96.2841L53.4148 96.2727L51.3977 102.864H51.3068L49.2955 96.2727H47.1136L50.2784 105.182L50.1023 105.653C49.7216 106.648 49.1193 106.716 48.2216 106.455L47.7443 108.057C48.0227 108.17 48.5227 108.273 49.0852 108.273ZM61.3991 96.2727H59.6776V94.1818H57.6207V96.2727H56.3821V97.8636H57.6207V102.716C57.6094 104.358 58.8026 105.165 60.348 105.119C60.9332 105.102 61.3366 104.989 61.5582 104.915L61.2116 103.307C61.098 103.335 60.8651 103.386 60.6094 103.386C60.0923 103.386 59.6776 103.205 59.6776 102.375V97.8636H61.3991V96.2727ZM65.3636 99.8864C65.3636 98.625 66.1477 97.8977 67.25 97.8977C68.3295 97.8977 68.9659 98.5852 68.9659 99.7614V105H71.0227V99.4432C71.0227 97.3352 69.8295 96.1591 68.017 96.1591C66.6761 96.1591 65.8239 96.767 65.4205 97.7557H65.3182V93.3636H63.3068V105H65.3636V99.8864ZM76.9261 105.17C79.483 105.17 81.108 103.369 81.108 100.67C81.108 97.9659 79.483 96.1591 76.9261 96.1591C74.3693 96.1591 72.7443 97.9659 72.7443 100.67C72.7443 103.369 74.3693 105.17 76.9261 105.17ZM76.9375 103.523C75.5227 103.523 74.8295 102.261 74.8295 100.665C74.8295 99.0682 75.5227 97.7898 76.9375 97.7898C78.3295 97.7898 79.0227 99.0682 79.0227 100.665C79.0227 102.261 78.3295 103.523 76.9375 103.523ZM84.9105 99.8864C84.9105 98.625 85.6719 97.8977 86.7571 97.8977C87.8196 97.8977 88.456 98.5966 88.456 99.7614V105H90.5128V99.4432C90.5185 97.3523 89.3253 96.1591 87.5241 96.1591C86.2173 96.1591 85.3196 96.7841 84.9219 97.7557H84.8196V96.2727H82.8537V105H84.9105V99.8864Z" fill="#808080"/>
</svg>
