<svg width="128" height="128" viewBox="0 0 128 128" fill="none" xmlns="http://www.w3.org/2000/svg">
<path d="M37.6009 96.8002H39.7088V92.8684H41.9361C44.6236 92.8684 46.0668 91.2548 46.0668 89.0161C46.0668 86.7945 44.6406 85.1639 41.9645 85.1639H37.6009V96.8002ZM39.7088 91.1355V86.9252H41.6406C43.2202 86.9252 43.919 87.7775 43.919 89.0161C43.919 90.2548 43.2202 91.1355 41.652 91.1355H39.7088ZM49.0852 100.073C50.6875 100.073 51.6136 99.2491 52.108 97.8571L55.6136 88.0843L53.4148 88.073L51.3977 94.6639H51.3068L49.2955 88.073H47.1136L50.2784 96.9821L50.1023 97.4536C49.7216 98.448 49.1193 98.5161 48.2216 98.2548L47.7443 99.8571C48.0227 99.9707 48.5227 100.073 49.0852 100.073ZM61.3991 88.073H59.6776V85.982H57.6207V88.073H56.3821V89.6639H57.6207V94.5161C57.6094 96.1582 58.8026 96.965 60.348 96.9196C60.9332 96.9025 61.3366 96.7889 61.5582 96.715L61.2116 95.1071C61.098 95.1355 60.8651 95.1866 60.6094 95.1866C60.0923 95.1866 59.6776 95.0048 59.6776 94.1752V89.6639H61.3991V88.073ZM65.3636 91.6866C65.3636 90.4252 66.1477 89.698 67.25 89.698C68.3295 89.698 68.9659 90.3855 68.9659 91.5616V96.8002H71.0227V91.2434C71.0227 89.1355 69.8295 87.9593 68.017 87.9593C66.6761 87.9593 65.8239 88.5673 65.4205 89.5559H65.3182V85.1639H63.3068V96.8002H65.3636V91.6866ZM76.9261 96.9707C79.483 96.9707 81.108 95.1696 81.108 92.4707C81.108 89.7661 79.483 87.9593 76.9261 87.9593C74.3693 87.9593 72.7443 89.7661 72.7443 92.4707C72.7443 95.1696 74.3693 96.9707 76.9261 96.9707ZM76.9375 95.323C75.5227 95.323 74.8295 94.0616 74.8295 92.465C74.8295 90.8684 75.5227 89.59 76.9375 89.59C78.3295 89.59 79.0227 90.8684 79.0227 92.465C79.0227 94.0616 78.3295 95.323 76.9375 95.323ZM84.9105 91.6866C84.9105 90.4252 85.6719 89.698 86.7571 89.698C87.8196 89.698 88.456 90.3968 88.456 91.5616V96.8002H90.5128V91.2434C90.5185 89.1525 89.3253 87.9593 87.5241 87.9593C86.2173 87.9593 85.3196 88.5843 84.9219 89.5559H84.8196V88.073H82.8537V96.8002H84.9105V91.6866Z" fill="#808080"/>
</svg>
