<svg width="128" height="128" viewBox="0 0 128 128" fill="none" xmlns="http://www.w3.org/2000/svg">
<path d="M26 111.875V16.0849C26 13.8289 27.8051 12 30.0318 12H73.374C74.5019 12 75.5216 12.4692 76.2533 13.2255L100.635 37.939C101.472 38.6875 102 39.7826 102 41.0027V111.875C102 114.131 100.195 115.96 97.9682 115.96H30.0318C27.8051 115.96 26 114.131 26 111.875Z" fill="#FAFAFA" stroke="#E0E0E0"/>
<path d="M81.1671 36.9178H97.9151C98.9511 36.9178 99.897 37.3034 100.617 37.939L75.9146 13.2255C76.6369 13.9623 77.0823 14.9716 77.0823 16.0849V32.8329C77.0823 35.0889 78.9111 36.9178 81.1671 36.9178Z" fill="white"/>
<path d="M102 41.0027C102 39.7826 101.465 38.6875 100.617 37.939M72.9974 12C74.1401 12 75.1732 12.4692 75.9146 13.2255M75.9146 13.2255C76.6369 13.9623 77.0823 14.9716 77.0823 16.0849V32.8329C77.0823 35.0889 78.9111 36.9178 81.1671 36.9178H97.9151C98.9511 36.9178 99.897 37.3034 100.617 37.939M75.9146 13.2255L100.617 37.939" stroke="#E0E0E0"/>
</svg>
