<svg width="128" height="128" viewBox="0 0 128 128" fill="none" xmlns="http://www.w3.org/2000/svg">
<path d="M12 100.725V27.0985C12 24.835 13.7909 23 16 23L41.3163 23C42.3639 23 43.3698 23.4212 44.1176 24.173L48.581 29.7821C49.3288 30.5339 50.3347 30.9551 51.3824 30.9551H112C114.209 30.9551 116 32.79 116 35.0536V100.725C116 102.989 114.209 104.824 112 104.824H16C13.7909 104.824 12 102.989 12 100.725Z" fill="#A3E3FF"/>
<path d="M12 100.261V40.5627C12 38.0428 13.7909 36 16 36H112C114.209 36 116 38.0428 116 40.5626V100.261C116 102.781 114.209 104.824 112 104.824H16C13.7909 104.824 12 102.781 12 100.261Z" fill="#9ED9FA"/>
<path d="M12 100.261V40.5627C12 38.0428 13.7909 36 16 36H112C114.209 36 116 38.0428 116 40.5626V100.261C116 102.781 114.209 104.824 112 104.824H16C13.7909 104.824 12 102.781 12 100.261Z" fill="url(#paint0_linear_138:808)"/>
<defs>
<linearGradient id="paint0_linear_138:808" x1="64" y1="36" x2="64" y2="104.824" gradientUnits="userSpaceOnUse">
<stop stop-color="#6FCCF6"/>
<stop offset="0.39898" stop-color="#7CD3F9"/>
<stop offset="1" stop-color="#92DBFC"/>
</linearGradient>
</defs>
</svg>
