<svg width="128" height="128" viewBox="0 0 128 128" fill="none" xmlns="http://www.w3.org/2000/svg">
<rect width="128" height="128" fill="#EEEEEE"/>
<path d="M55.5971 106.208C57.1171 106.208 58.3171 105.6 59.2611 104.512L58.2691 103.344C57.5651 104.112 56.7491 104.592 55.6611 104.592C53.5811 104.592 52.2691 102.88 52.2691 100.08C52.2691 97.312 53.6771 95.616 55.7091 95.616C56.6691 95.616 57.4051 96.048 58.0131 96.672L59.0211 95.488C58.3011 94.704 57.1491 94 55.6771 94C52.7011 94 50.3651 96.304 50.3651 100.144C50.3651 104 52.6371 106.208 55.5971 106.208ZM64.2558 106.208C66.8318 106.208 68.3998 104.672 68.3998 102.784C68.3998 101.056 67.3918 100.192 65.9998 99.6L64.3838 98.912C63.4238 98.528 62.4798 98.144 62.4798 97.12C62.4798 96.192 63.2638 95.616 64.4638 95.616C65.5038 95.616 66.3198 96.016 67.0558 96.672L68.0318 95.488C67.1358 94.576 65.8398 94 64.4638 94C62.2238 94 60.5918 95.392 60.5918 97.248C60.5918 98.96 61.8558 99.856 62.9918 100.336L64.6238 101.04C65.7118 101.52 66.5118 101.856 66.5118 102.928C66.5118 103.92 65.7118 104.592 64.2878 104.592C63.1518 104.592 61.9998 104.048 61.1518 103.2L60.0638 104.48C61.1358 105.568 62.6398 106.208 64.2558 106.208ZM73.7245 106.208C76.3005 106.208 77.8685 104.672 77.8685 102.784C77.8685 101.056 76.8605 100.192 75.4685 99.6L73.8525 98.912C72.8925 98.528 71.9485 98.144 71.9485 97.12C71.9485 96.192 72.7325 95.616 73.9325 95.616C74.9725 95.616 75.7885 96.016 76.5245 96.672L77.5005 95.488C76.6045 94.576 75.3085 94 73.9325 94C71.6925 94 70.0605 95.392 70.0605 97.248C70.0605 98.96 71.3245 99.856 72.4605 100.336L74.0925 101.04C75.1805 101.52 75.9805 101.856 75.9805 102.928C75.9805 103.92 75.1805 104.592 73.7565 104.592C72.6205 104.592 71.4685 104.048 70.6205 103.2L69.5325 104.48C70.6045 105.568 72.1085 106.208 73.7245 106.208Z" fill="#7F7F7F"/>
</svg>
