<svg width="128" height="128" viewBox="0 0 128 128" fill="none" xmlns="http://www.w3.org/2000/svg">
<rect width="128" height="128" fill="#EEEEEE"/>
<path d="M53.7801 106H55.6361V95.776H59.1081V94.208H50.3241V95.776H53.7801V106ZM59.4904 106H61.4584L62.9624 103.072C63.2504 102.464 63.5544 101.872 63.8744 101.152H63.9384C64.3064 101.872 64.6104 102.464 64.9144 103.072L66.4664 106H68.5304L65.1384 100.016L68.3064 94.208H66.3544L64.9624 96.976C64.6904 97.52 64.4664 98.048 64.1624 98.752H64.0824C63.7304 98.048 63.4744 97.52 63.1864 96.976L61.7624 94.208H59.6984L62.8664 99.92L59.4904 106ZM72.3583 106H74.2143V95.776H77.6863V94.208H68.9023V95.776H72.3583V106Z" fill="#7F7F7F"/>
</svg>
