<svg width="128" height="128" viewBox="0 0 128 128" fill="none" xmlns="http://www.w3.org/2000/svg">
<rect width="128" height="128" fill="#EEEEEE"/>
<path d="M60.3315 106.208C61.8515 106.208 63.0515 105.6 63.9955 104.512L63.0035 103.344C62.2995 104.112 61.4835 104.592 60.3955 104.592C58.3155 104.592 57.0035 102.88 57.0035 100.08C57.0035 97.312 58.4115 95.616 60.4435 95.616C61.4035 95.616 62.1395 96.048 62.7475 96.672L63.7555 95.488C63.0355 94.704 61.8835 94 60.4115 94C57.4355 94 55.0995 96.304 55.0995 100.144C55.0995 104 57.3715 106.208 60.3315 106.208ZM68.9901 106.208C71.5661 106.208 73.1341 104.672 73.1341 102.784C73.1341 101.056 72.1261 100.192 70.7341 99.6L69.1181 98.912C68.1581 98.528 67.2141 98.144 67.2141 97.12C67.2141 96.192 67.9981 95.616 69.1981 95.616C70.2381 95.616 71.0541 96.016 71.7901 96.672L72.7661 95.488C71.8701 94.576 70.5741 94 69.1981 94C66.9581 94 65.3261 95.392 65.3261 97.248C65.3261 98.96 66.5901 99.856 67.7261 100.336L69.3581 101.04C70.4461 101.52 71.2461 101.856 71.2461 102.928C71.2461 103.92 70.4461 104.592 69.0221 104.592C67.8861 104.592 66.7341 104.048 65.8861 103.2L64.7981 104.48C65.8701 105.568 67.3741 106.208 68.9901 106.208Z" fill="#7F7F7F"/>
</svg>
