<svg width="128" height="128" viewBox="0 0 128 128" fill="none" xmlns="http://www.w3.org/2000/svg">
<rect width="128" height="128" fill="#EEEEEE"/>
<path d="M56.0481 106.208C56.7361 106.208 57.2801 105.68 57.2801 104.928C57.2801 104.16 56.7361 103.616 56.0481 103.616C55.3601 103.616 54.8161 104.16 54.8161 104.928C54.8161 105.68 55.3601 106.208 56.0481 106.208ZM63.2026 106.208C64.2106 106.208 65.2506 105.84 66.0666 105.12L65.2986 103.904C64.7706 104.352 64.1146 104.704 63.3786 104.704C61.9226 104.704 60.8986 103.472 60.8986 101.6C60.8986 99.744 61.9546 98.496 63.4426 98.496C64.0346 98.496 64.5306 98.752 65.0106 99.184L65.9226 97.984C65.2826 97.424 64.4666 96.976 63.3466 96.976C61.0266 96.976 58.9946 98.672 58.9946 101.6C58.9946 104.528 60.8186 106.208 63.2026 106.208ZM71.0463 106.208C72.0543 106.208 73.0943 105.84 73.9103 105.12L73.1423 103.904C72.6143 104.352 71.9583 104.704 71.2223 104.704C69.7663 104.704 68.7423 103.472 68.7423 101.6C68.7423 99.744 69.7983 98.496 71.2863 98.496C71.8783 98.496 72.3743 98.752 72.8543 99.184L73.7663 97.984C73.1263 97.424 72.3103 96.976 71.1903 96.976C68.8703 96.976 66.8383 98.672 66.8383 101.6C66.8383 104.528 68.6623 106.208 71.0463 106.208Z" fill="#7F7F7F"/>
</svg>
