<svg width="128" height="128" viewBox="0 0 128 128" fill="none" xmlns="http://www.w3.org/2000/svg">
<rect width="128" height="128" fill="#EEEEEE"/>
<path d="M49.8918 106.208C50.5798 106.208 51.1238 105.68 51.1238 104.928C51.1238 104.16 50.5798 103.616 49.8918 103.616C49.2038 103.616 48.6598 104.16 48.6598 104.928C48.6598 105.68 49.2038 106.208 49.8918 106.208ZM57.0463 106.208C58.0543 106.208 59.0943 105.84 59.9103 105.12L59.1423 103.904C58.6143 104.352 57.9583 104.704 57.2223 104.704C55.7663 104.704 54.7423 103.472 54.7423 101.6C54.7423 99.744 55.7983 98.496 57.2863 98.496C57.8783 98.496 58.3743 98.752 58.8543 99.184L59.7663 97.984C59.1263 97.424 58.3103 96.976 57.1903 96.976C54.8703 96.976 52.8383 98.672 52.8383 101.6C52.8383 104.528 54.6623 106.208 57.0463 106.208ZM61.7279 109.568H63.5679V106.72L63.5039 105.216C64.2559 105.856 65.0399 106.208 65.8239 106.208C67.8079 106.208 69.6159 104.48 69.6159 101.456C69.6159 98.752 68.3679 96.976 66.1439 96.976C65.1519 96.976 64.1919 97.52 63.4239 98.16H63.3759L63.2319 97.2H61.7279V109.568ZM65.4719 104.688C64.9279 104.688 64.2559 104.48 63.5679 103.888V99.584C64.3039 98.864 64.9599 98.512 65.6479 98.512C67.1199 98.512 67.7119 99.648 67.7119 101.488C67.7119 103.552 66.7519 104.688 65.4719 104.688ZM71.8061 109.568H73.6461V106.72L73.5821 105.216C74.3341 105.856 75.1181 106.208 75.9021 106.208C77.8861 106.208 79.6941 104.48 79.6941 101.456C79.6941 98.752 78.4461 96.976 76.2221 96.976C75.2301 96.976 74.2701 97.52 73.5021 98.16H73.4541L73.3101 97.2H71.8061V109.568ZM75.5501 104.688C75.0061 104.688 74.3341 104.48 73.6461 103.888V99.584C74.3821 98.864 75.0381 98.512 75.7261 98.512C77.1981 98.512 77.7901 99.648 77.7901 101.488C77.7901 103.552 76.8301 104.688 75.5501 104.688Z" fill="#7F7F7F"/>
</svg>
