<svg width="128" height="128" viewBox="0 0 128 128" fill="none" xmlns="http://www.w3.org/2000/svg">
<rect width="128" height="128" fill="#EEEEEE"/>
<path d="M50.6106 106.208C51.2986 106.208 51.8426 105.68 51.8426 104.928C51.8426 104.16 51.2986 103.616 50.6106 103.616C49.9226 103.616 49.3786 104.16 49.3786 104.928C49.3786 105.68 49.9226 106.208 50.6106 106.208ZM54.3842 106H56.2242V99.76C56.9922 98.976 57.5522 98.56 58.3682 98.56C59.4082 98.56 59.8562 99.168 59.8562 100.688V106H61.6962V100.464C61.6962 98.224 60.8642 96.976 58.9922 96.976C57.7922 96.976 56.9122 97.632 56.1442 98.368L56.2242 96.624V93.248H54.3842V106ZM63.1697 106H65.1057L66.1297 104.128C66.4017 103.6 66.6737 103.072 66.9457 102.576H67.0257C67.3457 103.072 67.6497 103.616 67.9377 104.128L69.0897 106H71.0897L68.2577 101.616L70.8977 97.2H68.9777L68.0497 98.96C67.8097 99.456 67.5537 99.952 67.3137 100.448H67.2497C66.9617 99.952 66.6737 99.456 66.4177 98.96L65.3617 97.2H63.3777L66.0177 101.408L63.1697 106ZM71.5916 106H73.5276L74.5516 104.128C74.8236 103.6 75.0956 103.072 75.3676 102.576H75.4476C75.7676 103.072 76.0716 103.616 76.3596 104.128L77.5116 106H79.5116L76.6796 101.616L79.3196 97.2H77.3996L76.4716 98.96C76.2316 99.456 75.9756 99.952 75.7356 100.448H75.6716C75.3836 99.952 75.0956 99.456 74.8396 98.96L73.7836 97.2H71.7996L74.4396 101.408L71.5916 106Z" fill="#7F7F7F"/>
</svg>
