<svg width="128" height="128" viewBox="0 0 128 128" fill="none" xmlns="http://www.w3.org/2000/svg">
<rect width="128" height="128" fill="#EEEEEE"/>
<path d="M53.9934 106.208C54.6814 106.208 55.2254 105.68 55.2254 104.928C55.2254 104.16 54.6814 103.616 53.9934 103.616C53.3054 103.616 52.7614 104.16 52.7614 104.928C52.7614 105.68 53.3054 106.208 53.9934 106.208ZM57.767 106H59.607V99.76C60.375 98.976 60.935 98.56 61.751 98.56C62.791 98.56 63.239 99.168 63.239 100.688V106H65.079V100.464C65.079 98.224 64.247 96.976 62.375 96.976C61.175 96.976 60.295 97.632 59.527 98.368L59.607 96.624V93.248H57.767V106ZM67.7045 109.568H69.5445V106.72L69.4805 105.216C70.2325 105.856 71.0165 106.208 71.8005 106.208C73.7845 106.208 75.5925 104.48 75.5925 101.456C75.5925 98.752 74.3445 96.976 72.1205 96.976C71.1285 96.976 70.1685 97.52 69.4005 98.16H69.3525L69.2085 97.2H67.7045V109.568ZM71.4485 104.688C70.9045 104.688 70.2325 104.48 69.5445 103.888V99.584C70.2805 98.864 70.9365 98.512 71.6245 98.512C73.0965 98.512 73.6885 99.648 73.6885 101.488C73.6885 103.552 72.7285 104.688 71.4485 104.688Z" fill="#7F7F7F"/>
</svg>
