<svg width="128" height="128" viewBox="0 0 128 128" fill="none" xmlns="http://www.w3.org/2000/svg">
<rect width="128" height="128" fill="#EEEEEE"/>
<path d="M59.0324 106.208C59.7204 106.208 60.2644 105.68 60.2644 104.928C60.2644 104.16 59.7204 103.616 59.0324 103.616C58.3444 103.616 57.8004 104.16 57.8004 104.928C57.8004 105.68 58.3444 106.208 59.0324 106.208ZM62.8061 106H64.6461V99.76C65.4141 98.976 65.9741 98.56 66.7901 98.56C67.8301 98.56 68.2781 99.168 68.2781 100.688V106H70.1181V100.464C70.1181 98.224 69.2861 96.976 67.4141 96.976C66.2141 96.976 65.3341 97.632 64.5661 98.368L64.6461 96.624V93.248H62.8061V106Z" fill="#7F7F7F"/>
</svg>
