<svg width="128" height="128" viewBox="0 0 128 128" fill="none" xmlns="http://www.w3.org/2000/svg">
<rect width="128" height="128" fill="#EEEEEE"/>
<path d="M54.0637 106.208C54.7517 106.208 55.2957 105.68 55.2957 104.928C55.2957 104.16 54.7517 103.616 54.0637 103.616C53.3757 103.616 52.8317 104.16 52.8317 104.928C52.8317 105.68 53.3757 106.208 54.0637 106.208ZM57.8373 106H59.6773V99.76C60.4453 98.976 61.0053 98.56 61.8213 98.56C62.8613 98.56 63.3093 99.168 63.3093 100.688V106H65.1493V100.464C65.1493 98.224 64.3173 96.976 62.4453 96.976C61.2453 96.976 60.3653 97.632 59.5973 98.368L59.6773 96.624V93.248H57.8373V106ZM67.7748 106H69.6148V99.76C70.3828 98.976 70.9428 98.56 71.7588 98.56C72.7988 98.56 73.2468 99.168 73.2468 100.688V106H75.0868V100.464C75.0868 98.224 74.2548 96.976 72.3828 96.976C71.1828 96.976 70.3028 97.632 69.5348 98.368L69.6148 96.624V93.248H67.7748V106Z" fill="#7F7F7F"/>
</svg>
