<svg width="128" height="128" viewBox="0 0 128 128" fill="none" xmlns="http://www.w3.org/2000/svg">
<rect width="128" height="128" fill="#EEEEEE"/>
<path d="M59.9699 106.208C60.6579 106.208 61.2019 105.68 61.2019 104.928C61.2019 104.16 60.6579 103.616 59.9699 103.616C59.2819 103.616 58.7379 104.16 58.7379 104.928C58.7379 105.68 59.2819 106.208 59.9699 106.208ZM67.1244 106.208C68.1324 106.208 69.1724 105.84 69.9884 105.12L69.2204 103.904C68.6924 104.352 68.0364 104.704 67.3004 104.704C65.8444 104.704 64.8204 103.472 64.8204 101.6C64.8204 99.744 65.8764 98.496 67.3644 98.496C67.9564 98.496 68.4524 98.752 68.9324 99.184L69.8444 97.984C69.2044 97.424 68.3884 96.976 67.2684 96.976C64.9484 96.976 62.9164 98.672 62.9164 101.6C62.9164 104.528 64.7404 106.208 67.1244 106.208Z" fill="#7F7F7F"/>
</svg>
