<svg width="128" height="128" viewBox="0 0 128 128" fill="none" xmlns="http://www.w3.org/2000/svg">
<rect width="128" height="128" fill="#EEEEEE"/>
<path d="M58.6224 106.208C61.0224 106.208 62.0464 104.512 62.0464 102.4V94.208H60.1904V102.224C60.1904 103.952 59.5984 104.592 58.4144 104.592C57.6464 104.592 57.0064 104.224 56.5104 103.312L55.2144 104.256C55.9504 105.552 57.0384 106.208 58.6224 106.208ZM68.4433 106.208C71.0193 106.208 72.5873 104.672 72.5873 102.784C72.5873 101.056 71.5793 100.192 70.1873 99.6L68.5713 98.912C67.6113 98.528 66.6673 98.144 66.6673 97.12C66.6673 96.192 67.4513 95.616 68.6513 95.616C69.6913 95.616 70.5073 96.016 71.2433 96.672L72.2193 95.488C71.3233 94.576 70.0273 94 68.6513 94C66.4113 94 64.7793 95.392 64.7793 97.248C64.7793 98.96 66.0433 99.856 67.1793 100.336L68.8113 101.04C69.8993 101.52 70.6993 101.856 70.6993 102.928C70.6993 103.92 69.8993 104.592 68.4753 104.592C67.3393 104.592 66.1873 104.048 65.3393 103.2L64.2513 104.48C65.3233 105.568 66.8273 106.208 68.4433 106.208Z" fill="#7F7F7F"/>
</svg>
