<svg width="128" height="128" viewBox="0 0 128 128" fill="none" xmlns="http://www.w3.org/2000/svg">
<path d="M48.6207 96.9252C49.2912 96.9252 49.8651 96.3684 49.8707 95.6752C49.8651 94.9934 49.2912 94.4366 48.6207 94.4366C47.9276 94.4366 47.3651 94.9934 47.3707 95.6752C47.3651 96.3684 47.9276 96.9252 48.6207 96.9252ZM55.8011 96.9707C57.9943 96.9707 59.392 95.6696 59.5398 93.8173H57.5739C57.3977 94.7548 56.7216 95.2946 55.8182 95.2946C54.5341 95.2946 53.7045 94.2207 53.7045 92.4366C53.7045 90.6752 54.5511 89.6184 55.8182 89.6184C56.8068 89.6184 57.4148 90.2548 57.5739 91.0957H59.5398C59.3977 89.2036 57.9205 87.9593 55.7898 87.9593C53.233 87.9593 51.6193 89.8059 51.6193 92.4707C51.6193 95.1127 53.1932 96.9707 55.8011 96.9707ZM64.6605 96.1127H66.4446V93.073H69.4844V91.2889H66.4446V88.2491H64.6605V91.2889H61.6207V93.073H64.6605V96.1127ZM75.4261 96.1127H77.2102V93.073H80.25V91.2889H77.2102V88.2491H75.4261V91.2889H72.3864V93.073H75.4261V96.1127Z" fill="#808080"/>
</svg>
