<svg width="128" height="128" viewBox="0 0 128 128" fill="none" xmlns="http://www.w3.org/2000/svg">
<path d="M48.6207 105.125C49.2912 105.125 49.8651 104.568 49.8707 103.875C49.8651 103.193 49.2912 102.636 48.6207 102.636C47.9276 102.636 47.3651 103.193 47.3707 103.875C47.3651 104.568 47.9276 105.125 48.6207 105.125ZM55.8011 105.17C57.9943 105.17 59.392 103.869 59.5398 102.017H57.5739C57.3977 102.955 56.7216 103.494 55.8182 103.494C54.5341 103.494 53.7045 102.42 53.7045 100.636C53.7045 98.875 54.5511 97.8182 55.8182 97.8182C56.8068 97.8182 57.4148 98.4545 57.5739 99.2955H59.5398C59.3977 97.4034 57.9205 96.1591 55.7898 96.1591C53.233 96.1591 51.6193 98.0057 51.6193 100.67C51.6193 103.312 53.1932 105.17 55.8011 105.17ZM64.6605 104.312H66.4446V101.273H69.4844V99.4886H66.4446V96.4489H64.6605V99.4886H61.6207V101.273H64.6605V104.312ZM75.4261 104.312H77.2102V101.273H80.25V99.4886H77.2102V96.4489H75.4261V99.4886H72.3864V101.273H75.4261V104.312Z" fill="#808080"/>
</svg>
