<svg width="128" height="128" viewBox="0 0 128 128" fill="none" xmlns="http://www.w3.org/2000/svg">
<path d="M59.3864 105.125C60.0568 105.125 60.6307 104.568 60.6364 103.875C60.6307 103.193 60.0568 102.636 59.3864 102.636C58.6932 102.636 58.1307 103.193 58.1364 103.875C58.1307 104.568 58.6932 105.125 59.3864 105.125ZM66.5668 105.17C68.7599 105.17 70.1577 103.869 70.3054 102.017H68.3395C68.1634 102.955 67.4872 103.494 66.5838 103.494C65.2997 103.494 64.4702 102.42 64.4702 100.636C64.4702 98.875 65.3168 97.8182 66.5838 97.8182C67.5724 97.8182 68.1804 98.4545 68.3395 99.2955H70.3054C70.1634 97.4034 68.6861 96.1591 66.5554 96.1591C63.9986 96.1591 62.3849 98.0057 62.3849 100.67C62.3849 103.312 63.9588 105.17 66.5668 105.17Z" fill="#808080"/>
</svg>
