<svg width="128" height="128" viewBox="0 0 128 128" fill="none" xmlns="http://www.w3.org/2000/svg">
<path d="M59.3864 96.9252C60.0568 96.9252 60.6307 96.3684 60.6364 95.6752C60.6307 94.9934 60.0568 94.4366 59.3864 94.4366C58.6932 94.4366 58.1307 94.9934 58.1364 95.6752C58.1307 96.3684 58.6932 96.9252 59.3864 96.9252ZM66.5668 96.9707C68.7599 96.9707 70.1577 95.6696 70.3054 93.8173H68.3395C68.1634 94.7548 67.4872 95.2946 66.5838 95.2946C65.2997 95.2946 64.4702 94.2207 64.4702 92.4366C64.4702 90.6752 65.3168 89.6184 66.5838 89.6184C67.5724 89.6184 68.1804 90.2548 68.3395 91.0957H70.3054C70.1634 89.2036 68.6861 87.9593 66.5554 87.9593C63.9986 87.9593 62.3849 89.8059 62.3849 92.4707C62.3849 95.1127 63.9588 96.9707 66.5668 96.9707Z" fill="#808080"/>
</svg>
