<svg width="128" height="128" viewBox="0 0 128 128" fill="none" xmlns="http://www.w3.org/2000/svg">
<path d="M54.7692 96.9252C55.4396 96.9252 56.0135 96.3684 56.0192 95.6752C56.0135 94.9934 55.4396 94.4366 54.7692 94.4366C54.076 94.4366 53.5135 94.9934 53.5192 95.6752C53.5135 96.3684 54.076 96.9252 54.7692 96.9252ZM61.9496 96.9707C64.1428 96.9707 65.5405 95.6696 65.6882 93.8173H63.7223C63.5462 94.7548 62.87 95.2946 61.9666 95.2946C60.6825 95.2946 59.853 94.2207 59.853 92.4366C59.853 90.6752 60.6996 89.6184 61.9666 89.6184C62.9553 89.6184 63.5632 90.2548 63.7223 91.0957H65.6882C65.5462 89.2036 64.0689 87.9593 61.9382 87.9593C59.3814 87.9593 57.7678 89.8059 57.7678 92.4707C57.7678 95.1127 59.3416 96.9707 61.9496 96.9707ZM71.1839 96.9707C73.3771 96.9707 74.7749 95.6696 74.9226 93.8173H72.9567C72.7805 94.7548 72.1044 95.2946 71.201 95.2946C69.9169 95.2946 69.0874 94.2207 69.0874 92.4366C69.0874 90.6752 69.9339 89.6184 71.201 89.6184C72.1896 89.6184 72.7976 90.2548 72.9567 91.0957H74.9226C74.7805 89.2036 73.3033 87.9593 71.1726 87.9593C68.6158 87.9593 67.0021 89.8059 67.0021 92.4707C67.0021 95.1127 68.576 96.9707 71.1839 96.9707Z" fill="#808080"/>
</svg>
