<svg width="128" height="128" viewBox="0 0 128 128" fill="none" xmlns="http://www.w3.org/2000/svg">
<path d="M54.7692 105.125C55.4396 105.125 56.0135 104.568 56.0192 103.875C56.0135 103.193 55.4396 102.636 54.7692 102.636C54.076 102.636 53.5135 103.193 53.5192 103.875C53.5135 104.568 54.076 105.125 54.7692 105.125ZM61.9496 105.17C64.1428 105.17 65.5405 103.869 65.6882 102.017H63.7223C63.5462 102.955 62.87 103.494 61.9666 103.494C60.6825 103.494 59.853 102.42 59.853 100.636C59.853 98.875 60.6996 97.8182 61.9666 97.8182C62.9553 97.8182 63.5632 98.4545 63.7223 99.2955H65.6882C65.5462 97.4034 64.0689 96.1591 61.9382 96.1591C59.3814 96.1591 57.7678 98.0057 57.7678 100.67C57.7678 103.312 59.3416 105.17 61.9496 105.17ZM71.1839 105.17C73.3771 105.17 74.7749 103.869 74.9226 102.017H72.9567C72.7805 102.955 72.1044 103.494 71.201 103.494C69.9169 103.494 69.0874 102.42 69.0874 100.636C69.0874 98.875 69.9339 97.8182 71.201 97.8182C72.1896 97.8182 72.7976 98.4545 72.9567 99.2955H74.9226C74.7805 97.4034 73.3033 96.1591 71.1726 96.1591C68.6158 96.1591 67.0021 98.0057 67.0021 100.67C67.0021 103.312 68.576 105.17 71.1839 105.17Z" fill="#808080"/>
</svg>
