<svg width="128" height="128" viewBox="0 0 128 128" fill="none" xmlns="http://www.w3.org/2000/svg">
<path d="M49.3864 105.125C50.0568 105.125 50.6307 104.568 50.6364 103.875C50.6307 103.193 50.0568 102.636 49.3864 102.636C48.6932 102.636 48.1307 103.193 48.1364 103.875C48.1307 104.568 48.6932 105.125 49.3864 105.125ZM56.5668 105.17C58.7599 105.17 60.1577 103.869 60.3054 102.017H58.3395C58.1634 102.955 57.4872 103.494 56.5838 103.494C55.2997 103.494 54.4702 102.42 54.4702 100.636C54.4702 98.875 55.3168 97.8182 56.5838 97.8182C57.5724 97.8182 58.1804 98.4545 58.3395 99.2955H60.3054C60.1634 97.4034 58.6861 96.1591 56.5554 96.1591C53.9986 96.1591 52.3849 98.0057 52.3849 100.67C52.3849 103.312 53.9588 105.17 56.5668 105.17ZM61.9943 108.273H64.0511V103.625H64.1364C64.4602 104.261 65.1364 105.153 66.6364 105.153C68.6932 105.153 70.233 103.523 70.233 100.648C70.233 97.7386 68.6477 96.1591 66.6307 96.1591C65.0909 96.1591 64.4489 97.0852 64.1364 97.7159H64.017V96.2727H61.9943V108.273ZM64.0114 100.636C64.0114 98.9432 64.7386 97.8466 66.0625 97.8466C67.4318 97.8466 68.1364 99.0114 68.1364 100.636C68.1364 102.273 67.4205 103.466 66.0625 103.466C64.75 103.466 64.0114 102.33 64.0114 100.636ZM71.9943 108.273H74.0511V103.625H74.1364C74.4602 104.261 75.1364 105.153 76.6364 105.153C78.6932 105.153 80.233 103.523 80.233 100.648C80.233 97.7386 78.6477 96.1591 76.6307 96.1591C75.0909 96.1591 74.4489 97.0852 74.1364 97.7159H74.017V96.2727H71.9943V108.273ZM74.0114 100.636C74.0114 98.9432 74.7386 97.8466 76.0625 97.8466C77.4318 97.8466 78.1364 99.0114 78.1364 100.636C78.1364 102.273 77.4205 103.466 76.0625 103.466C74.75 103.466 74.0114 102.33 74.0114 100.636Z" fill="#808080"/>
</svg>
