<svg width="128" height="128" viewBox="0 0 128 128" fill="none" xmlns="http://www.w3.org/2000/svg">
<path d="M49.3864 96.9252C50.0568 96.9252 50.6307 96.3684 50.6364 95.6752C50.6307 94.9934 50.0568 94.4366 49.3864 94.4366C48.6932 94.4366 48.1307 94.9934 48.1364 95.6752C48.1307 96.3684 48.6932 96.9252 49.3864 96.9252ZM56.5668 96.9707C58.7599 96.9707 60.1577 95.6696 60.3054 93.8173H58.3395C58.1634 94.7548 57.4872 95.2946 56.5838 95.2946C55.2997 95.2946 54.4702 94.2207 54.4702 92.4366C54.4702 90.6752 55.3168 89.6184 56.5838 89.6184C57.5724 89.6184 58.1804 90.2548 58.3395 91.0957H60.3054C60.1634 89.2036 58.6861 87.9593 56.5554 87.9593C53.9986 87.9593 52.3849 89.8059 52.3849 92.4707C52.3849 95.1127 53.9588 96.9707 56.5668 96.9707ZM61.9943 100.073H64.0511V95.4252H64.1364C64.4602 96.0616 65.1364 96.9536 66.6364 96.9536C68.6932 96.9536 70.233 95.323 70.233 92.448C70.233 89.5389 68.6477 87.9593 66.6307 87.9593C65.0909 87.9593 64.4489 88.8855 64.1364 89.5161H64.017V88.073H61.9943V100.073ZM64.0114 92.4366C64.0114 90.7434 64.7386 89.6468 66.0625 89.6468C67.4318 89.6468 68.1364 90.8116 68.1364 92.4366C68.1364 94.073 67.4205 95.2661 66.0625 95.2661C64.75 95.2661 64.0114 94.1298 64.0114 92.4366ZM71.9943 100.073H74.0511V95.4252H74.1364C74.4602 96.0616 75.1364 96.9536 76.6364 96.9536C78.6932 96.9536 80.233 95.323 80.233 92.448C80.233 89.5389 78.6477 87.9593 76.6307 87.9593C75.0909 87.9593 74.4489 88.8855 74.1364 89.5161H74.017V88.073H71.9943V100.073ZM74.0114 92.4366C74.0114 90.7434 74.7386 89.6468 76.0625 89.6468C77.4318 89.6468 78.1364 90.8116 78.1364 92.4366C78.1364 94.073 77.4205 95.2661 76.0625 95.2661C74.75 95.2661 74.0114 94.1298 74.0114 92.4366Z" fill="#808080"/>
</svg>
