<svg width="128" height="128" viewBox="0 0 128 128" fill="none" xmlns="http://www.w3.org/2000/svg">
<path d="M50.4176 96.9252C51.0881 96.9252 51.6619 96.3684 51.6676 95.6752C51.6619 94.9934 51.0881 94.4366 50.4176 94.4366C49.7244 94.4366 49.1619 94.9934 49.1676 95.6752C49.1619 96.3684 49.7244 96.9252 50.4176 96.9252ZM57.598 96.9707C59.7912 96.9707 61.1889 95.6696 61.3366 93.8173H59.3707C59.1946 94.7548 58.5185 95.2946 57.6151 95.2946C56.331 95.2946 55.5014 94.2207 55.5014 92.4366C55.5014 90.6752 56.348 89.6184 57.6151 89.6184C58.6037 89.6184 59.2116 90.2548 59.3707 91.0957H61.3366C61.1946 89.2036 59.7173 87.9593 57.5866 87.9593C55.0298 87.9593 53.4162 89.8059 53.4162 92.4707C53.4162 95.1127 54.9901 96.9707 57.598 96.9707ZM64.6449 88.073H62.4631L65.054 92.4366L62.3949 96.8002H64.5767L66.4062 93.6582L68.2528 96.8002H70.4176L67.7415 92.4366L70.3722 88.073H68.196L66.4062 91.2945L64.6449 88.073ZM73.6449 88.073H71.4631L74.054 92.4366L71.3949 96.8002H73.5767L75.4062 93.6582L77.2528 96.8002H79.4176L76.7415 92.4366L79.3722 88.073H77.196L75.4062 91.2945L73.6449 88.073Z" fill="#808080"/>
</svg>
