<svg width="128" height="128" viewBox="0 0 128 128" fill="none" xmlns="http://www.w3.org/2000/svg">
<path d="M50.4176 105.125C51.0881 105.125 51.6619 104.568 51.6676 103.875C51.6619 103.193 51.0881 102.636 50.4176 102.636C49.7244 102.636 49.1619 103.193 49.1676 103.875C49.1619 104.568 49.7244 105.125 50.4176 105.125ZM57.598 105.17C59.7912 105.17 61.1889 103.869 61.3366 102.017H59.3707C59.1946 102.955 58.5185 103.494 57.6151 103.494C56.331 103.494 55.5014 102.42 55.5014 100.636C55.5014 98.875 56.348 97.8182 57.6151 97.8182C58.6037 97.8182 59.2116 98.4545 59.3707 99.2955H61.3366C61.1946 97.4034 59.7173 96.1591 57.5866 96.1591C55.0298 96.1591 53.4162 98.0057 53.4162 100.67C53.4162 103.312 54.9901 105.17 57.598 105.17ZM64.6449 96.2727H62.4631L65.054 100.636L62.3949 105H64.5767L66.4062 101.858L68.2528 105H70.4176L67.7415 100.636L70.3722 96.2727H68.196L66.4062 99.4943L64.6449 96.2727ZM73.6449 96.2727H71.4631L74.054 100.636L71.3949 105H73.5767L75.4062 101.858L77.2528 105H79.4176L76.7415 100.636L79.3722 96.2727H77.196L75.4062 99.4943L73.6449 96.2727Z" fill="#808080"/>
</svg>
