<svg width="128" height="128" viewBox="0 0 128 128" fill="none" xmlns="http://www.w3.org/2000/svg">
<path d="M48.3317 105.125C49.0021 105.125 49.576 104.568 49.5817 103.875C49.576 103.193 49.0021 102.636 48.3317 102.636C47.6385 102.636 47.076 103.193 47.0817 103.875C47.076 104.568 47.6385 105.125 48.3317 105.125ZM53.7621 99.8864C53.7621 98.625 54.5462 97.8977 55.6484 97.8977C56.728 97.8977 57.3643 98.5852 57.3643 99.7614V105H59.4212V99.4432C59.4212 97.3352 58.228 96.1591 56.4155 96.1591C55.0746 96.1591 54.2223 96.767 53.8189 97.7557H53.7166V93.3636H51.7053V105H53.7621V99.8864ZM64.9496 104.312H66.7337V101.273H69.7734V99.4886H66.7337V96.4489H64.9496V99.4886H61.9098V101.273H64.9496V104.312ZM75.7152 104.312H77.4993V101.273H80.5391V99.4886H77.4993V96.4489H75.7152V99.4886H72.6754V101.273H75.7152V104.312Z" fill="#808080"/>
</svg>
