<svg width="128" height="128" viewBox="0 0 128 128" fill="none" xmlns="http://www.w3.org/2000/svg">
<path d="M48.3317 96.9252C49.0021 96.9252 49.576 96.3684 49.5817 95.6752C49.576 94.9934 49.0021 94.4366 48.3317 94.4366C47.6385 94.4366 47.076 94.9934 47.0817 95.6752C47.076 96.3684 47.6385 96.9252 48.3317 96.9252ZM53.7621 91.6866C53.7621 90.4252 54.5462 89.698 55.6484 89.698C56.728 89.698 57.3643 90.3855 57.3643 91.5616V96.8002H59.4212V91.2434C59.4212 89.1355 58.228 87.9593 56.4155 87.9593C55.0746 87.9593 54.2223 88.5673 53.8189 89.5559H53.7166V85.1639H51.7053V96.8002H53.7621V91.6866ZM64.9496 96.1127H66.7337V93.073H69.7734V91.2889H66.7337V88.2491H64.9496V91.2889H61.9098V93.073H64.9496V96.1127ZM75.7152 96.1127H77.4993V93.073H80.5391V91.2889H77.4993V88.2491H75.7152V91.2889H72.6754V93.073H75.7152V96.1127Z" fill="#808080"/>
</svg>
