<svg width="128" height="128" viewBox="0 0 128 128" fill="none" xmlns="http://www.w3.org/2000/svg">
<path d="M59.0973 96.9252C59.7678 96.9252 60.3416 96.3684 60.3473 95.6752C60.3416 94.9934 59.7678 94.4366 59.0973 94.4366C58.4041 94.4366 57.8416 94.9934 57.8473 95.6752C57.8416 96.3684 58.4041 96.9252 59.0973 96.9252ZM64.5277 91.6866C64.5277 90.4252 65.3118 89.698 66.4141 89.698C67.4936 89.698 68.13 90.3855 68.13 91.5616V96.8002H70.1868V91.2434C70.1868 89.1355 68.9936 87.9593 67.1811 87.9593C65.8402 87.9593 64.9879 88.5673 64.5845 89.5559H64.4822V85.1639H62.4709V96.8002H64.5277V91.6866Z" fill="#808080"/>
</svg>
