<svg width="128" height="128" viewBox="0 0 128 128" fill="none" xmlns="http://www.w3.org/2000/svg">
<path d="M59.0973 105.125C59.7678 105.125 60.3416 104.568 60.3473 103.875C60.3416 103.193 59.7678 102.636 59.0973 102.636C58.4041 102.636 57.8416 103.193 57.8473 103.875C57.8416 104.568 58.4041 105.125 59.0973 105.125ZM64.5277 99.8864C64.5277 98.625 65.3118 97.8977 66.4141 97.8977C67.4936 97.8977 68.13 98.5852 68.13 99.7614V105H70.1868V99.4432C70.1868 97.3352 68.9936 96.1591 67.1811 96.1591C65.8402 96.1591 64.9879 96.767 64.5845 97.7557H64.4822V93.3636H62.4709V105H64.5277V99.8864Z" fill="#808080"/>
</svg>
