<svg width="128" height="128" viewBox="0 0 128 128" fill="none" xmlns="http://www.w3.org/2000/svg">
<path d="M54.1911 96.9252C54.8615 96.9252 55.4354 96.3684 55.4411 95.6752C55.4354 94.9934 54.8615 94.4366 54.1911 94.4366C53.4979 94.4366 52.9354 94.9934 52.9411 95.6752C52.9354 96.3684 53.4979 96.9252 54.1911 96.9252ZM59.6214 91.6866C59.6214 90.4252 60.4055 89.698 61.5078 89.698C62.5874 89.698 63.2237 90.3855 63.2237 91.5616V96.8002H65.2805V91.2434C65.2805 89.1355 64.0874 87.9593 62.2749 87.9593C60.9339 87.9593 60.0817 88.5673 59.6783 89.5559H59.576V85.1639H57.5646V96.8002H59.6214V91.6866ZM69.4339 91.6866C69.4339 90.4252 70.218 89.698 71.3203 89.698C72.3999 89.698 73.0362 90.3855 73.0362 91.5616V96.8002H75.093V91.2434C75.093 89.1355 73.8999 87.9593 72.0874 87.9593C70.7464 87.9593 69.8942 88.5673 69.4908 89.5559H69.3885V85.1639H67.3771V96.8002H69.4339V91.6866Z" fill="#808080"/>
</svg>
