<svg width="128" height="128" viewBox="0 0 128 128" fill="none" xmlns="http://www.w3.org/2000/svg">
<path d="M54.1911 105.125C54.8615 105.125 55.4354 104.568 55.4411 103.875C55.4354 103.193 54.8615 102.636 54.1911 102.636C53.4979 102.636 52.9354 103.193 52.9411 103.875C52.9354 104.568 53.4979 105.125 54.1911 105.125ZM59.6214 99.8864C59.6214 98.625 60.4055 97.8977 61.5078 97.8977C62.5874 97.8977 63.2237 98.5852 63.2237 99.7614V105H65.2805V99.4432C65.2805 97.3352 64.0874 96.1591 62.2749 96.1591C60.9339 96.1591 60.0817 96.767 59.6783 97.7557H59.576V93.3636H57.5646V105H59.6214V99.8864ZM69.4339 99.8864C69.4339 98.625 70.218 97.8977 71.3203 97.8977C72.3999 97.8977 73.0362 98.5852 73.0362 99.7614V105H75.093V99.4432C75.093 97.3352 73.8999 96.1591 72.0874 96.1591C70.7464 96.1591 69.8942 96.767 69.4908 97.7557H69.3885V93.3636H67.3771V105H69.4339V99.8864Z" fill="#808080"/>
</svg>
