<svg width="128" height="128" viewBox="0 0 128 128" fill="none" xmlns="http://www.w3.org/2000/svg">
<path d="M54.0973 105.125C54.7678 105.125 55.3416 104.568 55.3473 103.875C55.3416 103.193 54.7678 102.636 54.0973 102.636C53.4041 102.636 52.8416 103.193 52.8473 103.875C52.8416 104.568 53.4041 105.125 54.0973 105.125ZM59.5277 99.8864C59.5277 98.625 60.3118 97.8977 61.4141 97.8977C62.4936 97.8977 63.13 98.5852 63.13 99.7614V105H65.1868V99.4432C65.1868 97.3352 63.9936 96.1591 62.1811 96.1591C60.8402 96.1591 59.9879 96.767 59.5845 97.7557H59.4822V93.3636H57.4709V105H59.5277V99.8864ZM67.2834 108.273H69.3402V103.625H69.4254C69.7493 104.261 70.4254 105.153 71.9254 105.153C73.9822 105.153 75.522 103.523 75.522 100.648C75.522 97.7386 73.9368 96.1591 71.9197 96.1591C70.38 96.1591 69.7379 97.0852 69.4254 97.7159H69.3061V96.2727H67.2834V108.273ZM69.3004 100.636C69.3004 98.9432 70.0277 97.8466 71.3516 97.8466C72.7209 97.8466 73.4254 99.0114 73.4254 100.636C73.4254 102.273 72.7095 103.466 71.3516 103.466C70.0391 103.466 69.3004 102.33 69.3004 100.636Z" fill="#808080"/>
</svg>
