<svg width="128" height="128" viewBox="0 0 128 128" fill="none" xmlns="http://www.w3.org/2000/svg">
<path d="M54.0973 96.9252C54.7678 96.9252 55.3416 96.3684 55.3473 95.6752C55.3416 94.9934 54.7678 94.4366 54.0973 94.4366C53.4041 94.4366 52.8416 94.9934 52.8473 95.6752C52.8416 96.3684 53.4041 96.9252 54.0973 96.9252ZM59.5277 91.6866C59.5277 90.4252 60.3118 89.698 61.4141 89.698C62.4936 89.698 63.13 90.3855 63.13 91.5616V96.8002H65.1868V91.2434C65.1868 89.1355 63.9936 87.9593 62.1811 87.9593C60.8402 87.9593 59.9879 88.5673 59.5845 89.5559H59.4822V85.1639H57.4709V96.8002H59.5277V91.6866ZM67.2834 100.073H69.3402V95.4252H69.4254C69.7493 96.0616 70.4254 96.9536 71.9254 96.9536C73.9822 96.9536 75.522 95.323 75.522 92.448C75.522 89.5389 73.9368 87.9593 71.9197 87.9593C70.38 87.9593 69.7379 88.8855 69.4254 89.5161H69.3061V88.073H67.2834V100.073ZM69.3004 92.4366C69.3004 90.7434 70.0277 89.6468 71.3516 89.6468C72.7209 89.6468 73.4254 90.8116 73.4254 92.4366C73.4254 94.073 72.7095 95.2661 71.3516 95.2661C70.0391 95.2661 69.3004 94.1298 69.3004 92.4366Z" fill="#808080"/>
</svg>
