<svg width="128" height="128" viewBox="0 0 128 128" fill="none" xmlns="http://www.w3.org/2000/svg">
<path d="M49.0973 105.125C49.7678 105.125 50.3416 104.568 50.3473 103.875C50.3416 103.193 49.7678 102.636 49.0973 102.636C48.4041 102.636 47.8416 103.193 47.8473 103.875C47.8416 104.568 48.4041 105.125 49.0973 105.125ZM54.5277 99.8864C54.5277 98.625 55.3118 97.8977 56.4141 97.8977C57.4936 97.8977 58.13 98.5852 58.13 99.7614V105H60.1868V99.4432C60.1868 97.3352 58.9936 96.1591 57.1811 96.1591C55.8402 96.1591 54.9879 96.767 54.5845 97.7557H54.4822V93.3636H52.4709V105H54.5277V99.8864ZM62.2834 108.273H64.3402V103.625H64.4254C64.7493 104.261 65.4254 105.153 66.9254 105.153C68.9822 105.153 70.522 103.523 70.522 100.648C70.522 97.7386 68.9368 96.1591 66.9197 96.1591C65.38 96.1591 64.7379 97.0852 64.4254 97.7159H64.3061V96.2727H62.2834V108.273ZM64.3004 100.636C64.3004 98.9432 65.0277 97.8466 66.3516 97.8466C67.7209 97.8466 68.4254 99.0114 68.4254 100.636C68.4254 102.273 67.7095 103.466 66.3516 103.466C65.0391 103.466 64.3004 102.33 64.3004 100.636ZM72.2834 108.273H74.3402V103.625H74.4254C74.7493 104.261 75.4254 105.153 76.9254 105.153C78.9822 105.153 80.522 103.523 80.522 100.648C80.522 97.7386 78.9368 96.1591 76.9197 96.1591C75.38 96.1591 74.7379 97.0852 74.4254 97.7159H74.3061V96.2727H72.2834V108.273ZM74.3004 100.636C74.3004 98.9432 75.0277 97.8466 76.3516 97.8466C77.7209 97.8466 78.4254 99.0114 78.4254 100.636C78.4254 102.273 77.7095 103.466 76.3516 103.466C75.0391 103.466 74.3004 102.33 74.3004 100.636Z" fill="#808080"/>
</svg>
