<svg width="128" height="128" viewBox="0 0 128 128" fill="none" xmlns="http://www.w3.org/2000/svg">
<path d="M49.0973 96.9252C49.7678 96.9252 50.3416 96.3684 50.3473 95.6752C50.3416 94.9934 49.7678 94.4366 49.0973 94.4366C48.4041 94.4366 47.8416 94.9934 47.8473 95.6752C47.8416 96.3684 48.4041 96.9252 49.0973 96.9252ZM54.5277 91.6866C54.5277 90.4252 55.3118 89.698 56.4141 89.698C57.4936 89.698 58.13 90.3855 58.13 91.5616V96.8002H60.1868V91.2434C60.1868 89.1355 58.9936 87.9593 57.1811 87.9593C55.8402 87.9593 54.9879 88.5673 54.5845 89.5559H54.4822V85.1639H52.4709V96.8002H54.5277V91.6866ZM62.2834 100.073H64.3402V95.4252H64.4254C64.7493 96.0616 65.4254 96.9536 66.9254 96.9536C68.9822 96.9536 70.522 95.323 70.522 92.448C70.522 89.5389 68.9368 87.9593 66.9197 87.9593C65.38 87.9593 64.7379 88.8855 64.4254 89.5161H64.3061V88.073H62.2834V100.073ZM64.3004 92.4366C64.3004 90.7434 65.0277 89.6468 66.3516 89.6468C67.7209 89.6468 68.4254 90.8116 68.4254 92.4366C68.4254 94.073 67.7095 95.2661 66.3516 95.2661C65.0391 95.2661 64.3004 94.1298 64.3004 92.4366ZM72.2834 100.073H74.3402V95.4252H74.4254C74.7493 96.0616 75.4254 96.9536 76.9254 96.9536C78.9822 96.9536 80.522 95.323 80.522 92.448C80.522 89.5389 78.9368 87.9593 76.9197 87.9593C75.38 87.9593 74.7379 88.8855 74.4254 89.5161H74.3061V88.073H72.2834V100.073ZM74.3004 92.4366C74.3004 90.7434 75.0277 89.6468 76.3516 89.6468C77.7209 89.6468 78.4254 90.8116 78.4254 92.4366C78.4254 94.073 77.7095 95.2661 76.3516 95.2661C75.0391 95.2661 74.3004 94.1298 74.3004 92.4366Z" fill="#808080"/>
</svg>
