<svg width="128" height="128" viewBox="0 0 128 128" fill="none" xmlns="http://www.w3.org/2000/svg">
<path d="M50.0973 105.125C50.7678 105.125 51.3416 104.568 51.3473 103.875C51.3416 103.193 50.7678 102.636 50.0973 102.636C49.4041 102.636 48.8416 103.193 48.8473 103.875C48.8416 104.568 49.4041 105.125 50.0973 105.125ZM55.5277 99.8864C55.5277 98.625 56.3118 97.8977 57.4141 97.8977C58.4936 97.8977 59.13 98.5852 59.13 99.7614V105H61.1868V99.4432C61.1868 97.3352 59.9936 96.1591 58.1811 96.1591C56.8402 96.1591 55.9879 96.767 55.5845 97.7557H55.4822V93.3636H53.4709V105H55.5277V99.8864ZM64.9652 96.2727H62.7834L65.3743 100.636L62.7152 105H64.897L66.7266 101.858L68.5732 105H70.7379L68.0618 100.636L70.6925 96.2727H68.5163L66.7266 99.4943L64.9652 96.2727ZM73.9652 96.2727H71.7834L74.3743 100.636L71.7152 105H73.897L75.7266 101.858L77.5732 105H79.7379L77.0618 100.636L79.6925 96.2727H77.5163L75.7266 99.4943L73.9652 96.2727Z" fill="#808080"/>
</svg>
