<svg width="128" height="128" viewBox="0 0 128 128" fill="none" xmlns="http://www.w3.org/2000/svg">
<path d="M50.0973 96.9252C50.7678 96.9252 51.3416 96.3684 51.3473 95.6752C51.3416 94.9934 50.7678 94.4366 50.0973 94.4366C49.4041 94.4366 48.8416 94.9934 48.8473 95.6752C48.8416 96.3684 49.4041 96.9252 50.0973 96.9252ZM55.5277 91.6866C55.5277 90.4252 56.3118 89.698 57.4141 89.698C58.4936 89.698 59.13 90.3855 59.13 91.5616V96.8002H61.1868V91.2434C61.1868 89.1355 59.9936 87.9593 58.1811 87.9593C56.8402 87.9593 55.9879 88.5673 55.5845 89.5559H55.4822V85.1639H53.4709V96.8002H55.5277V91.6866ZM64.9652 88.073H62.7834L65.3743 92.4366L62.7152 96.8002H64.897L66.7266 93.6582L68.5732 96.8002H70.7379L68.0618 92.4366L70.6925 88.073H68.5163L66.7266 91.2945L64.9652 88.073ZM73.9652 88.073H71.7834L74.3743 92.4366L71.7152 96.8002H73.897L75.7266 93.6582L77.5732 96.8002H79.7379L77.0618 92.4366L79.6925 88.073H77.5163L75.7266 91.2945L73.9652 88.073Z" fill="#808080"/>
</svg>
