<svg width="128" height="128" viewBox="0 0 128 128" fill="none" xmlns="http://www.w3.org/2000/svg">
<path d="M60.0589 85.1639V93.3457C60.0533 94.573 59.4851 95.2264 58.4737 95.2264C57.5305 95.2264 56.8999 94.6525 56.8828 93.7093H54.7862C54.7862 95.8571 56.3544 96.9593 58.3942 96.9593C60.6385 96.9593 62.1442 95.5957 62.1499 93.3457V85.1639H60.0589ZM70.7607 88.3627H72.7891C72.7493 86.3968 71.0732 85.0048 68.5959 85.0048C66.1527 85.0048 64.3175 86.3798 64.3232 88.4366C64.3232 90.107 65.5107 91.0673 67.4254 91.5616L68.7493 91.9025C70.005 92.2207 70.8345 92.6127 70.8402 93.5161C70.8345 94.5105 69.8913 95.1752 68.5163 95.1752C67.1982 95.1752 66.1754 94.5843 66.0902 93.3627H64.0163C64.1016 95.6752 65.8232 96.9764 68.5334 96.9764C71.3232 96.9764 72.9425 95.5843 72.9482 93.5332C72.9425 91.5161 71.2777 90.5957 69.5277 90.1809L68.4368 89.9082C67.4822 89.6809 66.4482 89.2775 66.4595 88.3059C66.4652 87.4309 67.2493 86.7889 68.5675 86.7889C69.8232 86.7889 70.6527 87.3741 70.7607 88.3627Z" fill="#808080"/>
</svg>
