<svg width="128" height="128" viewBox="0 0 128 128" fill="none" xmlns="http://www.w3.org/2000/svg">
<path d="M60.0589 93.3636V101.545C60.0533 102.773 59.4851 103.426 58.4737 103.426C57.5305 103.426 56.8999 102.852 56.8828 101.909H54.7862C54.7862 104.057 56.3544 105.159 58.3942 105.159C60.6385 105.159 62.1442 103.795 62.1499 101.545V93.3636H60.0589ZM70.7607 96.5625H72.7891C72.7493 94.5966 71.0732 93.2045 68.5959 93.2045C66.1527 93.2045 64.3175 94.5795 64.3232 96.6364C64.3232 98.3068 65.5107 99.267 67.4254 99.7614L68.7493 100.102C70.005 100.42 70.8345 100.812 70.8402 101.716C70.8345 102.71 69.8913 103.375 68.5163 103.375C67.1982 103.375 66.1754 102.784 66.0902 101.562H64.0163C64.1016 103.875 65.8232 105.176 68.5334 105.176C71.3232 105.176 72.9425 103.784 72.9482 101.733C72.9425 99.7159 71.2777 98.7955 69.5277 98.3807L68.4368 98.108C67.4822 97.8807 66.4482 97.4773 66.4595 96.5057C66.4652 95.6307 67.2493 94.9886 68.5675 94.9886C69.8232 94.9886 70.6527 95.5739 70.7607 96.5625Z" fill="#808080"/>
</svg>
