<svg width="128" height="128" viewBox="0 0 128 128" fill="none" xmlns="http://www.w3.org/2000/svg">
<path d="M47.9339 85.1639V93.3457C47.9283 94.573 47.3601 95.2264 46.3487 95.2264C45.4055 95.2264 44.7749 94.6525 44.7578 93.7093H42.6612C42.6612 95.8571 44.2294 96.9593 46.2692 96.9593C48.5135 96.9593 50.0192 95.5957 50.0249 93.3457V85.1639H47.9339ZM58.6357 88.3627H60.6641C60.6243 86.3968 58.9482 85.0048 56.4709 85.0048C54.0277 85.0048 52.1925 86.3798 52.1982 88.4366C52.1982 90.107 53.3857 91.0673 55.3004 91.5616L56.6243 91.9025C57.88 92.2207 58.7095 92.6127 58.7152 93.5161C58.7095 94.5105 57.7663 95.1752 56.3913 95.1752C55.0732 95.1752 54.0504 94.5843 53.9652 93.3627H51.8913C51.9766 95.6752 53.6982 96.9764 56.4084 96.9764C59.1982 96.9764 60.8175 95.5843 60.8232 93.5332C60.8175 91.5161 59.1527 90.5957 57.4027 90.1809L56.3118 89.9082C55.3572 89.6809 54.3232 89.2775 54.3345 88.3059C54.3402 87.4309 55.1243 86.7889 56.4425 86.7889C57.6982 86.7889 58.5277 87.3741 58.6357 88.3627ZM73.1001 90.982C73.1001 87.2207 70.8047 85.0048 67.7536 85.0048C64.6967 85.0048 62.407 87.2207 62.407 90.982C62.407 94.7377 64.6967 96.9593 67.7536 96.9593C70.8047 96.9593 73.1001 94.7434 73.1001 90.982ZM70.9808 90.982C70.9808 93.6298 69.6513 95.0673 67.7536 95.0673C65.8615 95.0673 64.5263 93.6298 64.5263 90.982C64.5263 88.3343 65.8615 86.8968 67.7536 86.8968C69.6513 86.8968 70.9808 88.3343 70.9808 90.982ZM84.6555 85.1639H82.5589V93.0957H82.4567L76.9794 85.1639H75.093V96.8002H77.201V88.8741H77.2976L82.7805 96.8002H84.6555V85.1639Z" fill="#808080"/>
</svg>
