<svg width="128" height="128" viewBox="0 0 128 128" fill="none" xmlns="http://www.w3.org/2000/svg">
<path d="M47.9339 93.3636V101.545C47.9283 102.773 47.3601 103.426 46.3487 103.426C45.4055 103.426 44.7749 102.852 44.7578 101.909H42.6612C42.6612 104.057 44.2294 105.159 46.2692 105.159C48.5135 105.159 50.0192 103.795 50.0249 101.545V93.3636H47.9339ZM58.6357 96.5625H60.6641C60.6243 94.5966 58.9482 93.2045 56.4709 93.2045C54.0277 93.2045 52.1925 94.5795 52.1982 96.6364C52.1982 98.3068 53.3857 99.267 55.3004 99.7614L56.6243 100.102C57.88 100.42 58.7095 100.812 58.7152 101.716C58.7095 102.71 57.7663 103.375 56.3913 103.375C55.0732 103.375 54.0504 102.784 53.9652 101.562H51.8913C51.9766 103.875 53.6982 105.176 56.4084 105.176C59.1982 105.176 60.8175 103.784 60.8232 101.733C60.8175 99.7159 59.1527 98.7955 57.4027 98.3807L56.3118 98.108C55.3572 97.8807 54.3232 97.4773 54.3345 96.5057C54.3402 95.6307 55.1243 94.9886 56.4425 94.9886C57.6982 94.9886 58.5277 95.5739 58.6357 96.5625ZM73.1001 99.1818C73.1001 95.4205 70.8047 93.2045 67.7536 93.2045C64.6967 93.2045 62.407 95.4205 62.407 99.1818C62.407 102.938 64.6967 105.159 67.7536 105.159C70.8047 105.159 73.1001 102.943 73.1001 99.1818ZM70.9808 99.1818C70.9808 101.83 69.6513 103.267 67.7536 103.267C65.8615 103.267 64.5263 101.83 64.5263 99.1818C64.5263 96.5341 65.8615 95.0966 67.7536 95.0966C69.6513 95.0966 70.9808 96.5341 70.9808 99.1818ZM84.6555 93.3636H82.5589V101.295H82.4567L76.9794 93.3636H75.093V105H77.201V97.0739H77.2976L82.7805 105H84.6555V93.3636Z" fill="#808080"/>
</svg>
