<svg width="128" height="128" viewBox="0 0 128 128" fill="none" xmlns="http://www.w3.org/2000/svg">
<path d="M48.8977 105H51.0057V101.068H53.233C55.9205 101.068 57.3636 99.4545 57.3636 97.2159C57.3636 94.9943 55.9375 93.3636 53.2614 93.3636H48.8977V105ZM51.0057 99.3352V95.125H52.9375C54.517 95.125 55.2159 95.9773 55.2159 97.2159C55.2159 98.4545 54.517 99.3352 52.9489 99.3352H51.0057ZM59.1946 105H61.3026V100.057H66.6946V105H68.8082V93.3636H66.6946V98.2898H61.3026V93.3636H59.1946V105ZM71.1009 105H73.2088V101.068H75.4361C78.1236 101.068 79.5668 99.4545 79.5668 97.2159C79.5668 94.9943 78.1406 93.3636 75.4645 93.3636H71.1009V105ZM73.2088 99.3352V95.125H75.1406C76.7202 95.125 77.419 95.9773 77.419 97.2159C77.419 98.4545 76.7202 99.3352 75.152 99.3352H73.2088Z" fill="#808080"/>
</svg>
