<svg width="128" height="128" viewBox="0 0 128 128" fill="none" xmlns="http://www.w3.org/2000/svg">
<path d="M48.8977 96.8002H51.0057V92.8684H53.233C55.9205 92.8684 57.3636 91.2548 57.3636 89.0161C57.3636 86.7945 55.9375 85.1639 53.2614 85.1639H48.8977V96.8002ZM51.0057 91.1355V86.9252H52.9375C54.517 86.9252 55.2159 87.7775 55.2159 89.0161C55.2159 90.2548 54.517 91.1355 52.9489 91.1355H51.0057ZM59.1946 96.8002H61.3026V91.857H66.6946V96.8002H68.8082V85.1639H66.6946V90.09H61.3026V85.1639H59.1946V96.8002ZM71.1009 96.8002H73.2088V92.8684H75.4361C78.1236 92.8684 79.5668 91.2548 79.5668 89.0161C79.5668 86.7945 78.1406 85.1639 75.4645 85.1639H71.1009V96.8002ZM73.2088 91.1355V86.9252H75.1406C76.7202 86.9252 77.419 87.7775 77.419 89.0161C77.419 90.2548 76.7202 91.1355 75.152 91.1355H73.2088Z" fill="#808080"/>
</svg>
