<svg width="128" height="128" viewBox="0 0 128 128" fill="none" xmlns="http://www.w3.org/2000/svg">
<rect width="128" height="128" fill="#EEEEEE"/>
<path d="M50.8449 106.208C51.5329 106.208 52.0769 105.68 52.0769 104.928C52.0769 104.16 51.5329 103.616 50.8449 103.616C50.1569 103.616 49.6129 104.16 49.6129 104.928C49.6129 105.68 50.1569 106.208 50.8449 106.208ZM57.9994 106.208C59.0074 106.208 60.0474 105.84 60.8634 105.12L60.0954 103.904C59.5674 104.352 58.9114 104.704 58.1754 104.704C56.7194 104.704 55.6954 103.472 55.6954 101.6C55.6954 99.744 56.7514 98.496 58.2394 98.496C58.8314 98.496 59.3274 98.752 59.8074 99.184L60.7194 97.984C60.0794 97.424 59.2634 96.976 58.1434 96.976C55.8234 96.976 53.7914 98.672 53.7914 101.6C53.7914 104.528 55.6154 106.208 57.9994 106.208ZM65.1451 104.176H66.5531V100.72H69.8011V99.392H66.5531V95.936H65.1451V99.392H61.8971V100.72H65.1451V104.176ZM74.2701 104.176H75.6781V100.72H78.9261V99.392H75.6781V95.936H74.2701V99.392H71.0221V100.72H74.2701V104.176Z" fill="#7F7F7F"/>
</svg>
