<svg width="128" height="128" viewBox="0 0 128 128" fill="none" xmlns="http://www.w3.org/2000/svg">
<rect width="128" height="128" fill="#EEEEEE"/>
<path d="M51.5168 106.208C52.2048 106.208 52.7488 105.68 52.7488 104.928C52.7488 104.16 52.2048 103.616 51.5168 103.616C50.8288 103.616 50.2848 104.16 50.2848 104.928C50.2848 105.68 50.8288 106.208 51.5168 106.208ZM58.6713 106.208C59.6793 106.208 60.7193 105.84 61.5353 105.12L60.7673 103.904C60.2393 104.352 59.5833 104.704 58.8473 104.704C57.3913 104.704 56.3673 103.472 56.3673 101.6C56.3673 99.744 57.4233 98.496 58.9113 98.496C59.5033 98.496 59.9993 98.752 60.4793 99.184L61.3913 97.984C60.7513 97.424 59.9353 96.976 58.8153 96.976C56.4953 96.976 54.4633 98.672 54.4633 101.6C54.4633 104.528 56.2873 106.208 58.6713 106.208ZM62.2634 106H64.1994L65.2234 104.128C65.4954 103.6 65.7674 103.072 66.0394 102.576H66.1194C66.4394 103.072 66.7434 103.616 67.0314 104.128L68.1834 106H70.1834L67.3514 101.616L69.9914 97.2H68.0714L67.1434 98.96C66.9034 99.456 66.6474 99.952 66.4074 100.448H66.3434C66.0554 99.952 65.7674 99.456 65.5114 98.96L64.4554 97.2H62.4714L65.1114 101.408L62.2634 106ZM70.6853 106H72.6213L73.6453 104.128C73.9173 103.6 74.1893 103.072 74.4613 102.576H74.5413C74.8613 103.072 75.1653 103.616 75.4533 104.128L76.6053 106H78.6053L75.7733 101.616L78.4133 97.2H76.4933L75.5653 98.96C75.3253 99.456 75.0693 99.952 74.8293 100.448H74.7653C74.4773 99.952 74.1893 99.456 73.9333 98.96L72.8773 97.2H70.8933L73.5333 101.408L70.6853 106Z" fill="#7F7F7F"/>
</svg>
