<svg width="128" height="128" viewBox="0 0 128 128" fill="none" xmlns="http://www.w3.org/2000/svg">
<rect width="128" height="128" fill="#EEEEEE"/>
<path d="M48.9543 106.208C49.6423 106.208 50.1863 105.68 50.1863 104.928C50.1863 104.16 49.6423 103.616 48.9543 103.616C48.2663 103.616 47.7223 104.16 47.7223 104.928C47.7223 105.68 48.2663 106.208 48.9543 106.208ZM52.7279 106H54.5679V99.76C55.3359 98.976 55.8959 98.56 56.7119 98.56C57.7519 98.56 58.1999 99.168 58.1999 100.688V106H60.0399V100.464C60.0399 98.224 59.2079 96.976 57.3359 96.976C56.1359 96.976 55.2559 97.632 54.4879 98.368L54.5679 96.624V93.248H52.7279V106ZM62.6654 109.568H64.5054V106.72L64.4414 105.216C65.1934 105.856 65.9774 106.208 66.7614 106.208C68.7454 106.208 70.5534 104.48 70.5534 101.456C70.5534 98.752 69.3054 96.976 67.0814 96.976C66.0894 96.976 65.1294 97.52 64.3614 98.16H64.3134L64.1694 97.2H62.6654V109.568ZM66.4094 104.688C65.8654 104.688 65.1934 104.48 64.5054 103.888V99.584C65.2414 98.864 65.8974 98.512 66.5854 98.512C68.0574 98.512 68.6494 99.648 68.6494 101.488C68.6494 103.552 67.6894 104.688 66.4094 104.688ZM72.7436 109.568H74.5836V106.72L74.5196 105.216C75.2716 105.856 76.0556 106.208 76.8396 106.208C78.8236 106.208 80.6316 104.48 80.6316 101.456C80.6316 98.752 79.3836 96.976 77.1596 96.976C76.1676 96.976 75.2076 97.52 74.4396 98.16H74.3916L74.2476 97.2H72.7436V109.568ZM76.4876 104.688C75.9436 104.688 75.2716 104.48 74.5836 103.888V99.584C75.3196 98.864 75.9756 98.512 76.6636 98.512C78.1356 98.512 78.7276 99.648 78.7276 101.488C78.7276 103.552 77.7676 104.688 76.4876 104.688Z" fill="#7F7F7F"/>
</svg>
