<svg width="128" height="128" viewBox="0 0 128 128" fill="none" xmlns="http://www.w3.org/2000/svg">
<rect width="128" height="128" fill="#EEEEEE"/>
<path d="M58.7114 106.208C60.3274 106.208 61.6554 105.616 62.4394 104.832V99.728H58.4234V101.248H60.7594V104.016C60.3434 104.384 59.6234 104.592 58.9034 104.592C56.4714 104.592 55.1754 102.88 55.1754 100.08C55.1754 97.312 56.6314 95.616 58.8234 95.616C59.9594 95.616 60.6794 96.08 61.2714 96.672L62.2634 95.488C61.5434 94.736 60.4234 94 58.7594 94C55.6394 94 53.2714 96.304 53.2714 100.144C53.2714 104 55.5754 106.208 58.7114 106.208ZM69.6101 106.208C72.6341 106.208 74.7461 103.856 74.7461 100.064C74.7461 96.272 72.6341 94 69.6101 94C66.5861 94 64.4901 96.272 64.4901 100.064C64.4901 103.856 66.5861 106.208 69.6101 106.208ZM69.6101 104.592C67.6581 104.592 66.3941 102.816 66.3941 100.064C66.3941 97.296 67.6581 95.616 69.6101 95.616C71.5621 95.616 72.8421 97.296 72.8421 100.064C72.8421 102.816 71.5621 104.592 69.6101 104.592Z" fill="#7F7F7F"/>
</svg>
