<svg width="128" height="128" viewBox="0 0 128 128" fill="none" xmlns="http://www.w3.org/2000/svg">
<rect width="128" height="128" fill="#EEEEEE"/>
<path d="M41.2551 106H43.1111V101.536H44.8871C47.4471 101.536 49.3191 100.352 49.3191 97.776C49.3191 95.12 47.4471 94.208 44.8231 94.208H41.2551V106ZM43.1111 100.048V95.712H44.6471C46.5191 95.712 47.4951 96.224 47.4951 97.776C47.4951 99.328 46.5991 100.048 44.7111 100.048H43.1111ZM52.8158 106.208C53.8718 106.208 54.8158 105.68 55.6158 104.992H55.6798L55.8238 106H57.3278V100.704C57.3278 98.368 56.3198 96.976 54.1278 96.976C52.7198 96.976 51.4878 97.552 50.5758 98.128L51.2638 99.376C52.0158 98.896 52.8798 98.48 53.8078 98.48C55.1038 98.48 55.4718 99.376 55.4878 100.4C51.8238 100.8 50.2238 101.776 50.2238 103.664C50.2238 105.216 51.2958 106.208 52.8158 106.208ZM53.3758 104.752C52.5918 104.752 51.9998 104.4 51.9998 103.536C51.9998 102.544 52.8798 101.872 55.4878 101.568V103.728C54.7678 104.384 54.1438 104.752 53.3758 104.752ZM62.3229 106.208C64.4989 106.208 65.6669 105.008 65.6669 103.536C65.6669 101.872 64.3069 101.328 63.0749 100.864C62.1149 100.512 61.2509 100.224 61.2509 99.472C61.2509 98.864 61.6989 98.384 62.6749 98.384C63.3949 98.384 64.0189 98.704 64.6269 99.152L65.4909 98.016C64.7869 97.456 63.8109 96.976 62.6429 96.976C60.6909 96.976 59.5069 98.08 59.5069 99.552C59.5069 101.04 60.8029 101.664 61.9869 102.112C62.9309 102.48 63.9229 102.832 63.9229 103.632C63.9229 104.304 63.4269 104.816 62.3709 104.816C61.4269 104.816 60.6589 104.416 59.8749 103.808L59.0109 104.992C59.8749 105.696 61.1069 106.208 62.3229 106.208ZM71.2104 106.208C72.2184 106.208 73.2584 105.84 74.0744 105.12L73.3064 103.904C72.7784 104.352 72.1224 104.704 71.3864 104.704C69.9304 104.704 68.9064 103.472 68.9064 101.6C68.9064 99.744 69.9624 98.496 71.4504 98.496C72.0424 98.496 72.5384 98.752 73.0184 99.184L73.9304 97.984C73.2904 97.424 72.4744 96.976 71.3544 96.976C69.0344 96.976 67.0024 98.672 67.0024 101.6C67.0024 104.528 68.8264 106.208 71.2104 106.208ZM77.8001 106.208C78.8561 106.208 79.8001 105.68 80.6001 104.992H80.6641L80.8081 106H82.3121V100.704C82.3121 98.368 81.3041 96.976 79.1121 96.976C77.7041 96.976 76.4721 97.552 75.5601 98.128L76.2481 99.376C77.0001 98.896 77.8641 98.48 78.7921 98.48C80.0881 98.48 80.4561 99.376 80.4721 100.4C76.8081 100.8 75.2081 101.776 75.2081 103.664C75.2081 105.216 76.2801 106.208 77.8001 106.208ZM78.3601 104.752C77.5761 104.752 76.9841 104.4 76.9841 103.536C76.9841 102.544 77.8641 101.872 80.4721 101.568V103.728C79.7521 104.384 79.1281 104.752 78.3601 104.752ZM86.7473 106.208C87.2113 106.208 87.5153 106.144 87.7393 106.064L87.4993 104.672C87.3393 104.704 87.2753 104.704 87.1953 104.704C86.9713 104.704 86.7633 104.528 86.7633 104.032V93.248H84.9233V103.936C84.9233 105.36 85.4193 106.208 86.7473 106.208Z" fill="#7F7F7F"/>
</svg>
